<svg xmlns="http://www.w3.org/2000/svg" viewBox="0 0 24 14" width="24" height="14">
	<style>
		tspan { white-space:pre }
		.shp0 { fill: #ffffff } 
	</style>
	<path id="behance" class="shp0" d="M20.87 1.84L15.36 1.84L15.36 0.54L20.87 0.54L20.87 1.84L20.87 1.84ZM11.69 7.17C12.04 7.7 12.22 8.33 12.22 9.08C12.22 9.85 12.02 10.54 11.61 11.15C11.35 11.55 11.03 11.9 10.65 12.17C10.21 12.49 9.69 12.71 9.1 12.82C8.5 12.94 7.86 13 7.17 13L1 13L1 0L7.61 0C9.28 0.03 10.46 0.48 11.16 1.38C11.58 1.94 11.79 2.6 11.79 3.37C11.79 4.16 11.58 4.8 11.15 5.28C10.92 5.55 10.57 5.8 10.11 6.02C10.81 6.27 11.34 6.65 11.69 7.17ZM4.16 5.13L7.06 5.13C7.65 5.13 8.13 5.02 8.5 4.8C8.87 4.59 9.06 4.21 9.06 3.66C9.06 3.06 8.81 2.65 8.32 2.46C7.9 2.33 7.36 2.26 6.71 2.26L4.16 2.26L4.16 5.13ZM9.34 8.89C9.34 8.22 9.05 7.75 8.47 7.5C8.14 7.36 7.68 7.28 7.1 7.28L4.16 7.28L4.16 10.74L7.05 10.74C7.65 10.74 8.11 10.67 8.44 10.51C9.04 10.23 9.34 9.69 9.34 8.89ZM22.92 6.78C22.99 7.2 23.02 7.82 23 8.62L15.86 8.62C15.9 9.56 16.24 10.22 16.89 10.59C17.28 10.82 17.75 10.94 18.3 10.94C18.88 10.94 19.36 10.8 19.72 10.51C19.92 10.36 20.1 10.14 20.25 9.87L22.87 9.87C22.8 10.43 22.48 10.99 21.92 11.56C21.04 12.46 19.81 12.92 18.23 12.92C16.92 12.92 15.77 12.53 14.77 11.77C13.78 11 13.28 9.76 13.28 8.04C13.28 6.42 13.73 5.19 14.63 4.33C15.53 3.46 16.7 3.04 18.14 3.04C18.99 3.04 19.76 3.18 20.44 3.47C21.13 3.76 21.69 4.22 22.14 4.85C22.54 5.4 22.8 6.05 22.92 6.78ZM20.34 7.02C20.29 6.37 20.07 5.88 19.66 5.55C19.25 5.21 18.74 5.04 18.14 5.04C17.48 5.04 16.97 5.22 16.61 5.58C16.24 5.93 16.02 6.41 15.92 7.02L20.34 7.02L20.34 7.02Z" />
</svg>