<svg xmlns="http://www.w3.org/2000/svg" viewBox="0 0 23 21" width="23" height="21">
	<style>
		tspan { white-space:pre }
		.shp0 { fill: #ffffff } 
	</style>
	<path id="linkedin" class="shp0" d="M18.3 0L3.7 0C1.66 0 0 1.51 0 3.36L0 16.64C0 18.49 1.66 20 3.7 20L18.3 20C20.34 20 22 18.49 22 16.64L22 3.36C22 1.51 20.34 0 18.3 0ZM8.25 16.25L5.5 16.25L5.5 7.5L8.25 7.5L8.25 16.25ZM6.88 6.25C6.12 6.25 5.5 5.69 5.5 5C5.5 4.31 6.12 3.75 6.88 3.75C7.63 3.75 8.25 4.31 8.25 5C8.25 5.69 7.63 6.25 6.88 6.25ZM17.88 16.25L15.12 16.25L15.12 11.25C15.12 10.56 14.51 10 13.75 10C12.99 10 12.37 10.56 12.37 11.25L12.37 16.25L9.63 16.25L9.63 7.5L12.37 7.5L12.37 9.05C12.94 8.34 13.81 7.5 14.78 7.5C16.49 7.5 17.88 8.9 17.88 10.63L17.88 16.25Z" />
</svg>