<svg xmlns="http://www.w3.org/2000/svg" viewBox="0 0 22 18" width="22" height="18">
	<style>
		tspan { white-space:pre }
		.shp0 { fill: #ffffff } 
	</style>
	<path id="mail" class="shp0" d="M3.02,5.93c0.27,0.18 1.07,0.72 2.4,1.62c1.34,0.9 2.36,1.59 3.07,2.07c0.08,0.05 0.24,0.17 0.5,0.35c0.25,0.18 0.46,0.32 0.63,0.43c0.17,0.11 0.37,0.23 0.61,0.37c0.24,0.14 0.46,0.24 0.67,0.31c0.21,0.07 0.41,0.1 0.59,0.1h0.01h0.01c0.18,0 0.38,-0.03 0.59,-0.1c0.21,-0.07 0.44,-0.17 0.67,-0.31c0.24,-0.14 0.44,-0.26 0.61,-0.37c0.17,-0.11 0.38,-0.25 0.63,-0.43c0.25,-0.18 0.42,-0.29 0.5,-0.35c0.72,-0.48 2.55,-1.72 5.48,-3.69c0.57,-0.39 1.05,-0.85 1.43,-1.4c0.38,-0.55 0.57,-1.12 0.57,-1.72c0,-0.5 -0.19,-0.93 -0.56,-1.28c-0.37,-0.36 -0.81,-0.53 -1.32,-0.53h-17.25c-0.6,0 -1.06,0.2 -1.39,0.59c-0.32,0.39 -0.49,0.89 -0.49,1.48c0,0.48 0.21,0.99 0.64,1.55c0.43,0.56 0.89,0.99 1.37,1.31zM20.83,7.15c-2.56,1.68 -4.51,2.99 -5.84,3.92c-0.45,0.32 -0.81,0.57 -1.08,0.74c-0.28,0.18 -0.65,0.36 -1.11,0.55c-0.46,0.19 -0.89,0.28 -1.29,0.28h-0.01h-0.01c-0.4,0 -0.83,-0.09 -1.29,-0.28c-0.46,-0.19 -0.83,-0.37 -1.11,-0.55c-0.28,-0.18 -0.64,-0.43 -1.08,-0.74c-1.05,-0.75 -3,-2.06 -5.82,-3.92c-0.45,-0.29 -0.84,-0.62 -1.18,-0.99v9.02c0,0.5 0.18,0.93 0.55,1.28c0.37,0.36 0.81,0.53 1.32,0.53h17.25c0.52,0 0.96,-0.18 1.32,-0.53c0.37,-0.36 0.55,-0.78 0.55,-1.28v-9.02c-0.34,0.36 -0.73,0.69 -1.17,0.99z" />
</svg>