<svg xmlns="http://www.w3.org/2000/svg" viewBox="0 0 24 19" width="24" height="19">
	<style>
		tspan { white-space:pre }
		.shp0 { fill: #ffffff } 
	</style>
	<path id="twitter" class="shp0" d="M22.39,0.33c-0.87,0.52 -1.84,0.9 -2.87,1.1c-0.82,-0.89 -2,-1.44 -3.29,-1.44c-2.49,0 -4.51,2.04 -4.51,4.54c0,0.36 0.04,0.7 0.12,1.04c-3.75,-0.19 -7.08,-2 -9.3,-4.75c-0.39,0.67 -0.61,1.45 -0.61,2.28c0,1.58 0.8,2.97 2.01,3.78c-0.74,-0.02 -1.44,-0.23 -2.04,-0.57v0.06c0,2.2 1.56,4.04 3.62,4.46c-0.38,0.1 -0.78,0.16 -1.19,0.16c-0.29,0 -0.57,-0.03 -0.85,-0.08c0.57,1.81 2.24,3.12 4.22,3.16c-1.54,1.22 -3.49,1.94 -5.6,1.94c-0.36,0 -0.72,-0.02 -1.08,-0.06c2,1.29 4.37,2.04 6.92,2.04c8.3,0 12.84,-6.93 12.84,-12.93l-0.01,-0.59c0.88,-0.64 1.65,-1.44 2.26,-2.35c-0.81,0.36 -1.68,0.61 -2.59,0.72c0.93,-0.56 1.65,-1.45 1.98,-2.51z" />
</svg>