<svg width="17" height="16" viewBox="0 0 17 16" fill="none" xmlns="http://www.w3.org/2000/svg">
<g clip-path="url(#clip0)">
<path d="M8.49934 14.6667C5.20379 14.6232 2.54278 11.9622 2.49934 8.66666C2.54278 5.37111 5.20379 2.7101 8.49934 2.66666C11.7949 2.7101 14.4559 5.37111 14.4993 8.66666C14.4559 11.9622 11.7949 14.6232 8.49934 14.6667ZM8.49934 3.99999C5.93612 4.03374 3.86642 6.10344 3.83268 8.66666C3.86642 11.2299 5.93612 13.2996 8.49934 13.3333C11.0626 13.2996 13.1323 11.2299 13.166 8.66666C13.1323 6.10344 11.0626 4.03374 8.49934 3.99999ZM11.8327 9.33333H7.83268V5.33333H9.16601V7.99999H11.8327V9.33333ZM14.0273 4.472L12.0213 2.472L12.9607 1.52733L14.9673 3.52733L14.0273 4.47133V4.472ZM2.97068 4.472L2.02734 3.52733L4.02134 1.52733L4.96468 2.472L2.97201 4.472H2.97068Z" fill="#23A6F0"/>
</g>
<defs>
<clipPath id="clip0">
<rect width="16" height="16" fill="white" transform="translate(0.5)"/>
</clipPath>
</defs>
</svg>
