<svg xmlns="http://www.w3.org/2000/svg" viewBox="0 0 26 26" width="26" height="26">
	<style>
		tspan { white-space:pre }
		.shp0 { fill: #ffffff } 
	</style>
	<path id="dribbble" class="shp0" d="M12.5 25C10.78 25 9.16 24.67 7.65 24.01C6.13 23.35 4.8 22.46 3.67 21.33C2.54 20.2 1.65 18.87 0.99 17.35C0.33 15.84 0 14.22 0 12.5C0 10.78 0.33 9.16 0.99 7.65C1.65 6.13 2.54 4.8 3.67 3.67C4.8 2.54 6.13 1.65 7.65 0.99C9.16 0.33 10.78 0 12.5 0C14.22 0 15.84 0.33 17.35 0.99C18.87 1.65 20.2 2.54 21.33 3.67C22.46 4.8 23.35 6.13 24.01 7.65C24.67 9.16 25 10.78 25 12.5C25 14.22 24.67 15.84 24.01 17.35C23.35 18.87 22.46 20.2 21.33 21.33C20.2 22.46 18.87 23.35 17.35 24.01C15.84 24.67 14.22 25 12.5 25ZM23.05 14.21C22.96 14.19 22.71 14.13 22.32 14.02C21.92 13.91 21.42 13.82 20.82 13.73C20.23 13.65 19.55 13.6 18.78 13.58C18.01 13.57 17.21 13.62 16.38 13.75C16.72 14.71 17.02 15.61 17.27 16.47C17.53 17.33 17.74 18.09 17.91 18.76C18.08 19.43 18.21 19.99 18.29 20.44C18.37 20.9 18.43 21.2 18.47 21.37C19.66 20.55 20.66 19.53 21.46 18.3C22.27 17.07 22.79 15.71 23.05 14.21ZM16.68 22.34C16.64 22.11 16.57 21.74 16.46 21.23C16.35 20.72 16.21 20.11 16.02 19.4C15.84 18.69 15.62 17.89 15.36 17.01C15.1 16.14 14.78 15.21 14.4 14.24C14.38 14.25 14.35 14.26 14.32 14.26C12.82 14.79 11.54 15.41 10.49 16.15C9.44 16.88 8.59 17.58 7.93 18.26C7.27 18.94 6.79 19.53 6.48 20.04C6.17 20.54 5.99 20.84 5.94 20.93C6.86 21.64 7.87 22.19 8.97 22.59C10.08 22.98 11.25 23.18 12.5 23.18C13.96 23.18 15.36 22.9 16.68 22.34ZM4.56 19.66C4.61 19.55 4.84 19.21 5.23 18.63C5.63 18.05 6.2 17.39 6.93 16.65C7.66 15.91 8.55 15.16 9.6 14.41C10.65 13.66 11.87 13.06 13.26 12.61C13.33 12.57 13.4 12.55 13.46 12.54C13.53 12.53 13.59 12.51 13.67 12.47C13.52 12.17 13.38 11.87 13.23 11.58C13.09 11.29 12.94 10.99 12.8 10.68C11.46 11.08 10.16 11.38 8.89 11.59C7.63 11.8 6.49 11.95 5.49 12.04C4.49 12.13 3.66 12.18 3 12.19C2.34 12.2 1.94 12.2 1.82 12.2L1.82 12.53C1.82 13.9 2.06 15.19 2.55 16.4C3.04 17.62 3.71 18.7 4.56 19.66ZM2.06 10.33C2.17 10.33 2.51 10.33 3.09 10.32C3.67 10.31 4.4 10.26 5.29 10.18C6.17 10.1 7.19 9.97 8.34 9.79C9.49 9.61 10.68 9.35 11.93 9.03C11.48 8.25 11.03 7.51 10.59 6.81C10.15 6.1 9.74 5.47 9.38 4.92C9.02 4.37 8.71 3.91 8.46 3.55C8.21 3.19 8.04 2.96 7.97 2.85C6.45 3.55 5.17 4.56 4.14 5.87C3.1 7.18 2.4 8.67 2.06 10.33ZM10.01 2.14C10.08 2.23 10.24 2.46 10.51 2.82C10.77 3.18 11.09 3.64 11.46 4.2C11.83 4.76 12.23 5.4 12.68 6.11C13.12 6.83 13.56 7.58 13.99 8.38C14.93 8.04 15.74 7.65 16.43 7.23C17.12 6.8 17.69 6.4 18.14 6.02C18.59 5.64 18.93 5.31 19.16 5.04C19.38 4.77 19.52 4.6 19.58 4.53C18.62 3.68 17.54 3.02 16.34 2.55C15.13 2.08 13.86 1.84 12.5 1.84C11.67 1.84 10.84 1.94 10.01 2.14ZM20.77 5.78C20.72 5.85 20.56 6.03 20.3 6.33C20.03 6.63 19.66 6.98 19.18 7.39C18.7 7.8 18.1 8.23 17.38 8.69C16.66 9.15 15.8 9.58 14.8 9.98C14.93 10.23 15.05 10.49 15.17 10.75C15.29 11.01 15.4 11.27 15.51 11.52C15.55 11.61 15.59 11.7 15.63 11.8C15.68 11.89 15.72 11.98 15.75 12.07C16.64 11.96 17.51 11.91 18.36 11.93C19.21 11.95 19.97 11.99 20.66 12.05C21.35 12.12 21.92 12.19 22.37 12.27C22.82 12.35 23.09 12.4 23.18 12.42C23.17 11.15 22.95 9.96 22.53 8.84C22.12 7.72 21.53 6.7 20.77 5.78Z" />
</svg>