<svg xmlns="http://www.w3.org/2000/svg" viewBox="0 0 22 24" width="22" height="24">
	<style>
		tspan { white-space:pre }
		.shp0 { fill: #ffffff } 
	</style>
	<path id="user" class="shp0" d="M11,12.66c2.72,0 4.93,-2.61 4.93,-5.83c0,-4.46 -2.21,-5.83 -4.93,-5.83c-2.72,0 -4.93,1.36 -4.93,5.83c0,3.22 2.21,5.83 4.93,5.83zM21.89,21.23l-2.49,-5.66c-0.11,-0.26 -0.31,-0.47 -0.56,-0.6l-3.86,-2.03c-0.09,-0.04 -0.19,-0.04 -0.26,0.02c-1.09,0.83 -2.38,1.27 -3.71,1.27c-1.34,0 -2.62,-0.44 -3.71,-1.27c-0.08,-0.06 -0.18,-0.07 -0.27,-0.02l-3.86,2.03c-0.25,0.13 -0.45,0.35 -0.56,0.6l-2.49,5.66c-0.17,0.39 -0.14,0.84 0.09,1.19c0.23,0.36 0.62,0.57 1.04,0.57h19.51c0.42,0 0.81,-0.21 1.04,-0.57c0.23,-0.36 0.27,-0.8 0.09,-1.19z" />
</svg>