<svg width="10" height="10" viewBox="0 0 10 10" fill="none" xmlns="http://www.w3.org/2000/svg">
<path d="M9.1665 4.99984C9.056 4.99984 8.95002 5.04374 8.87188 5.12188C8.79374 5.20002 8.74984 5.306 8.74984 5.4165V8.33317C8.74984 8.56338 8.56338 8.74984 8.33317 8.74984H1.6665C1.4363 8.74984 1.24984 8.56338 1.24984 8.33317V1.6665C1.24984 1.4363 1.4363 1.24984 1.6665 1.24984H4.58317C4.69368 1.24984 4.79966 1.20594 4.8778 1.1278C4.95594 1.04966 4.99984 0.943677 4.99984 0.833171C4.99984 0.722664 4.95594 0.616683 4.8778 0.538543C4.79966 0.460403 4.69368 0.416504 4.58317 0.416504H1.6665C0.976191 0.416504 0.416504 0.976191 0.416504 1.6665V8.33317C0.416504 9.02348 0.976191 9.58317 1.6665 9.58317H8.33317C9.02348 9.58317 9.58317 9.02348 9.58317 8.33317V5.4165C9.58317 5.306 9.53927 5.20002 9.46113 5.12188C9.38299 5.04374 9.27701 4.99984 9.1665 4.99984Z" fill="#333333"/>
<path d="M9.58305 0.828796C9.58285 0.802845 9.58023 0.77697 9.57524 0.751504C9.57284 0.739837 9.56847 0.729004 9.56513 0.71765C9.56097 0.702858 9.55743 0.687962 9.55149 0.673587C9.54628 0.660879 9.53899 0.649525 9.53253 0.637546C9.52607 0.625566 9.52076 0.613171 9.51305 0.601712C9.50031 0.583292 9.48614 0.565911 9.47065 0.549733C9.46732 0.546087 9.46493 0.541921 9.46138 0.538483C9.45815 0.535254 9.4544 0.533171 9.45097 0.530046C9.43451 0.51417 9.41678 0.499677 9.39795 0.486712C9.3867 0.479212 9.3744 0.4739 9.36263 0.467546C9.35055 0.461087 9.33888 0.453691 9.32617 0.448379C9.3117 0.442337 9.2967 0.4389 9.2817 0.434629C9.27055 0.4314 9.25982 0.427025 9.24826 0.424733C9.22141 0.419285 9.19409 0.416528 9.1667 0.416504H6.6668C6.55629 0.416504 6.45031 0.460403 6.37217 0.538543C6.29403 0.616683 6.25013 0.722664 6.25013 0.833171C6.25013 0.943677 6.29403 1.04966 6.37217 1.1278C6.45031 1.20594 6.55629 1.24984 6.6668 1.24984H8.16086L4.74732 4.66338C4.70752 4.70182 4.67578 4.74779 4.65395 4.79863C4.63211 4.84946 4.62061 4.90414 4.62013 4.95946C4.61965 5.01479 4.63019 5.06965 4.65114 5.12086C4.6721 5.17207 4.70303 5.21859 4.74216 5.25771C4.78128 5.29683 4.8278 5.32777 4.87901 5.34872C4.93021 5.36967 4.98508 5.38021 5.0404 5.37973C5.09573 5.37925 5.1504 5.36776 5.20124 5.34592C5.25207 5.32408 5.29805 5.29234 5.33649 5.25255L8.75013 1.839V3.33317C8.75013 3.44368 8.79403 3.54966 8.87217 3.6278C8.95031 3.70594 9.05629 3.74984 9.1668 3.74984C9.27731 3.74984 9.38329 3.70594 9.46143 3.6278C9.53957 3.54966 9.58347 3.44368 9.58347 3.33317V0.833171C9.58347 0.831712 9.58305 0.830358 9.58305 0.828796Z" fill="#333333"/>
</svg>
