<svg width="17" height="14" viewBox="0 0 17 14" fill="none" xmlns="http://www.w3.org/2000/svg">
<path fill-rule="evenodd" clip-rule="evenodd" d="M1.78977 5.84162C6.16258 3.93646 9.07847 2.68047 10.5374 2.07363C14.7031 0.340991 15.5687 0.0400127 16.1329 0.0300742C16.257 0.0278884 16.5344 0.0586404 16.7141 0.204469C16.8659 0.327604 16.9076 0.493942 16.9276 0.610687C16.9476 0.727433 16.9725 0.993382 16.9527 1.20119C16.7269 3.57304 15.7502 9.3289 15.2533 11.9854C15.043 13.1095 14.629 13.4864 14.2281 13.5233C13.3571 13.6034 12.6956 12.9476 11.8519 12.3946C10.5317 11.5291 9.7859 10.9904 8.50442 10.146C7.02346 9.17002 7.98351 8.63363 8.82751 7.75701C9.04838 7.5276 12.8864 4.03666 12.9607 3.71997C12.9699 3.68037 12.9786 3.53273 12.8909 3.45478C12.8032 3.37682 12.6737 3.40348 12.5803 3.42468C12.4479 3.45473 10.3389 4.84872 6.25321 7.60664C5.65457 8.01772 5.11234 8.218 4.62652 8.20751C4.09094 8.19594 3.0607 7.90469 2.29483 7.65573C1.35545 7.35038 0.608856 7.18893 0.673868 6.67035C0.70773 6.40024 1.0797 6.124 1.78977 5.84162Z" fill="white"/>
</svg>
