<svg xmlns="http://www.w3.org/2000/svg" viewBox="0 0 20 22" width="20" height="22">
	<style>
		tspan { white-space:pre }
		.shp0 { fill: #ffffff } 
	</style>
	<path id="search" class="shp0" d="M19.99 19.98L18.95 21.03L13.18 15.24C12.85 15.54 12.49 15.81 12.09 16.04C11.69 16.27 11.28 16.47 10.85 16.64C10.41 16.81 9.96 16.93 9.48 17.01C9 17.1 8.52 17.14 8.06 17.14C6.93 17.14 5.88 16.92 4.9 16.49C3.93 16.06 3.07 15.48 2.34 14.74C1.61 14.01 1.04 13.16 0.63 12.18C0.21 11.2 0.01 10.16 0.01 9.06C0.01 7.93 0.21 6.88 0.63 5.89C1.04 4.91 1.61 4.06 2.34 3.33C3.07 2.6 3.93 2.02 4.9 1.61C5.88 1.19 6.93 0.98 8.06 0.98C9.15 0.98 10.19 1.19 11.17 1.61C12.15 2.02 13 2.6 13.73 3.33C14.46 4.06 15.04 4.91 15.47 5.89C15.9 6.88 16.12 7.93 16.12 9.06C16.12 9.53 16.07 10 15.99 10.48C15.91 10.96 15.78 11.42 15.62 11.85C15.45 12.29 15.25 12.7 15.02 13.1C14.79 13.5 14.52 13.86 14.23 14.2L19.99 19.98L19.99 19.98ZM0.85 9.06C0.85 10.06 1.03 10.99 1.4 11.85C1.76 12.72 2.28 13.48 2.94 14.15C3.6 14.81 4.37 15.33 5.25 15.72C6.13 16.1 7.07 16.29 8.06 16.29C9.06 16.29 9.98 16.1 10.85 15.72C11.71 15.33 12.47 14.81 13.13 14.15C13.79 13.48 14.32 12.72 14.7 11.85C15.08 10.99 15.27 10.06 15.27 9.06C15.27 8.06 15.08 7.13 14.7 6.24C14.32 5.36 13.79 4.59 13.13 3.93C12.47 3.26 11.71 2.75 10.85 2.38C9.98 2.01 9.06 1.83 8.06 1.83C7.07 1.83 6.13 2.01 5.25 2.38C4.37 2.75 3.6 3.26 2.94 3.93C2.28 4.59 1.76 5.36 1.4 6.24C1.03 7.13 0.85 8.06 0.85 9.06L0.85 9.06Z" />
</svg>