<svg xmlns="http://www.w3.org/2000/svg" viewBox="0 0 62 59" width="62" height="59">
	<style>
		tspan { white-space:pre }
		.shp0 { fill: #00a2ff } 
	</style>
	<path id="finger" class="shp0" d="M61.59 28.66C61.59 29.31 61.49 29.92 61.3 30.48C61.12 31.05 60.83 31.56 60.46 32.03C60.09 32.5 59.66 32.87 59.2 33.16C58.73 33.44 58.21 33.67 57.65 33.86C57.93 34.33 58.16 34.82 58.35 35.34C58.54 35.85 58.63 36.44 58.63 37.09C58.63 37.66 58.54 38.22 58.35 38.78C58.16 39.34 57.93 39.86 57.65 40.33C57.27 40.7 56.85 41.06 56.38 41.38C55.91 41.71 55.44 41.97 54.98 42.16C55.26 42.63 55.49 43.14 55.68 43.7C55.87 44.27 55.96 44.83 55.96 45.39C55.96 46.05 55.87 46.63 55.68 47.15C55.49 47.66 55.26 48.16 54.98 48.62C54.6 49.1 54.18 49.49 53.71 49.82C53.24 50.15 52.73 50.36 52.16 50.45C52.54 50.92 52.82 51.42 53.01 51.93C53.19 52.45 53.29 53.03 53.29 53.69C53.29 54.34 53.15 55 52.87 55.66C52.59 56.31 52.21 56.88 51.74 57.34C51.18 57.81 50.57 58.19 49.91 58.47C49.26 58.75 48.55 58.89 47.8 58.89L29.24 58.89C28.59 58.89 27.84 58.8 26.99 58.61C26.15 58.42 25.26 58.14 24.32 57.77C23.38 57.48 22.44 57.13 21.51 56.71C20.57 56.29 19.63 55.89 18.7 55.52C17.57 55.05 16.47 54.58 15.39 54.11C14.31 53.64 13.54 53.41 13.07 53.41L0.27 53.41L0.27 25.98L1.4 25.84C6.74 25.84 10.4 25.84 12.37 25.84C13.21 25.84 13.98 25.75 14.69 25.56C15.39 25.38 16.12 25 16.87 24.44C17.71 23.97 18.67 23.31 19.75 22.47C20.83 21.62 22.12 20.59 23.62 19.37C26.52 16.94 28.23 13.89 28.75 10.23C29.26 6.58 29.52 4.47 29.52 3.91C29.52 3.34 29.66 2.81 29.95 2.29C30.23 1.77 30.6 1.38 31.07 1.09C31.54 0.72 32.03 0.46 32.55 0.32C33.06 0.18 33.55 0.11 34.02 0.11C34.77 0.11 35.52 0.2 36.27 0.39C37.02 0.58 37.73 1 38.38 1.66C39.04 2.31 39.55 3.18 39.93 4.26C40.3 5.34 40.49 6.77 40.49 8.55C40.49 10.14 40.37 11.66 40.14 13.12C39.91 14.57 39.6 15.95 39.23 17.27C38.95 18.58 38.59 19.77 38.17 20.85C37.75 21.93 37.4 22.84 37.12 23.59L56.24 23.59C57.09 23.59 57.81 23.71 58.42 23.95C59.03 24.18 59.62 24.53 60.18 25C60.65 25.47 61 26.01 61.23 26.62C61.47 27.23 61.59 27.91 61.59 28.66L61.59 28.66L61.59 28.66ZM56.24 31.61C56.71 31.61 57.13 31.54 57.51 31.4C57.88 31.26 58.16 31.05 58.35 30.77C58.63 30.48 58.87 30.18 59.05 29.85C59.24 29.52 59.34 29.13 59.34 28.66C59.34 27.91 59.05 27.25 58.49 26.69C57.93 26.12 57.18 25.84 56.24 25.84L47.8 25.84C47.8 25.94 47.8 25.94 47.8 25.84L33.32 25.84L34.16 24.16C36.79 17.69 38.1 12.48 38.1 8.55C38.1 5.45 37.59 3.65 36.55 3.13C35.52 2.62 34.68 2.36 34.02 2.36C33.74 2.36 33.32 2.5 32.76 2.78C32.2 3.06 31.91 3.44 31.91 3.91C31.91 4.47 31.87 5.41 31.77 6.72C31.68 8.03 31.4 9.53 30.93 11.22C30.46 12.91 29.78 14.64 28.89 16.42C28 18.2 26.76 19.75 25.16 21.06C23.57 22.38 22.23 23.48 21.16 24.37C20.08 25.26 19.07 25.98 18.13 26.55C17.19 27.11 16.26 27.53 15.32 27.81C14.38 28.09 13.4 28.23 12.37 28.23C11.62 28.23 10.8 28.23 9.91 28.23C9.01 28.23 8.1 28.23 7.16 28.23C6.32 28.23 5.5 28.23 4.7 28.23C3.91 28.23 3.23 28.23 2.66 28.23L2.66 51.02L13.07 51.02C13.73 51.02 14.59 51.23 15.67 51.65C16.75 52.07 18.08 52.61 19.68 53.27C20.43 53.64 21.25 54.04 22.14 54.46C23.03 54.88 23.9 55.23 24.74 55.52C25.68 55.8 26.52 56.06 27.27 56.29C28.02 56.52 28.68 56.64 29.24 56.64L44.85 56.64L47.8 56.64C48.27 56.64 48.69 56.55 49.07 56.36C49.44 56.17 49.77 55.94 50.05 55.66C50.34 55.47 50.55 55.19 50.69 54.81C50.83 54.44 50.9 54.06 50.9 53.69C50.9 53.22 50.83 52.82 50.69 52.49C50.55 52.16 50.34 51.86 50.05 51.58C49.77 51.3 49.44 51.09 49.07 50.95C48.69 50.8 48.27 50.73 47.8 50.73L47.52 50.73L47.52 48.34L50.76 48.34C51.13 48.34 51.51 48.27 51.88 48.13C52.26 47.99 52.59 47.78 52.87 47.5C53.05 47.22 53.24 46.89 53.43 46.52C53.62 46.14 53.71 45.77 53.71 45.39C53.71 45.02 53.62 44.64 53.43 44.27C53.24 43.89 53.05 43.56 52.87 43.28C52.59 43.09 52.26 42.91 51.88 42.72C51.51 42.53 51.13 42.44 50.76 42.44L49.77 42.44L49.77 40.05L53.29 40.05C53.66 40.05 54.04 39.98 54.41 39.84C54.79 39.7 55.12 39.48 55.4 39.2C55.68 38.92 55.91 38.59 56.1 38.22C56.29 37.85 56.38 37.47 56.38 37.09C56.38 36.63 56.29 36.2 56.1 35.83C55.91 35.45 55.68 35.17 55.4 34.98C55.12 34.7 54.79 34.47 54.41 34.28C54.04 34.09 53.66 34 53.29 34L52.16 34L52.16 31.61L56.24 31.61L56.24 31.61L56.24 31.61L56.24 31.61L56.24 31.61Z" />
</svg>