<svg xmlns="http://www.w3.org/2000/svg" viewBox="0 0 60 61" width="60" height="61">
	<style>
		tspan { white-space:pre }
		.shp0 { fill: #ff6363 } 
	</style>
	<path id="select" class="shp0" d="M30 0.55C34.12 0.55 38.02 1.32 41.67 2.87C45.33 4.41 48.51 6.55 51.23 9.27C53.95 11.99 56.09 15.17 57.63 18.83C59.18 22.48 59.95 26.38 59.95 30.5C59.95 34.63 59.18 38.52 57.63 42.17C56.09 45.83 53.95 49.02 51.23 51.73C48.51 54.45 45.33 56.59 41.67 58.13C38.02 59.68 34.12 60.45 30 60.45C25.87 60.45 21.98 59.68 18.33 58.13C14.67 56.59 11.48 54.45 8.77 51.73C6.05 49.02 3.91 45.83 2.37 42.17C0.82 38.52 0.05 34.63 0.05 30.5C0.05 26.38 0.82 22.48 2.37 18.83C3.91 15.17 6.05 11.99 8.77 9.27C11.48 6.55 14.67 4.41 18.33 2.87C21.98 1.32 25.87 0.55 30 0.55L30 0.55ZM30 58.06C33.84 58.06 37.43 57.34 40.76 55.88C44.08 54.43 47.02 52.49 49.55 50.05C51.98 47.52 53.93 44.59 55.38 41.26C56.84 37.93 57.56 34.35 57.56 30.5C57.56 26.66 56.84 23.07 55.38 19.74C53.93 16.42 51.98 13.48 49.55 10.95C47.02 8.52 44.08 6.57 40.76 5.12C37.43 3.66 33.84 2.94 30 2.94C26.15 2.94 22.57 3.66 19.24 5.12C15.91 6.57 12.98 8.52 10.45 10.95C8.01 13.48 6.07 16.42 4.62 19.74C3.16 23.07 2.44 26.66 2.44 30.5C2.44 34.35 3.16 37.93 4.62 41.26C6.07 44.59 8.01 47.52 10.45 50.05C12.98 52.49 15.91 54.43 19.24 55.88C22.57 57.34 26.15 58.06 30 58.06L30 58.06ZM45.05 19.81C45.33 19.44 45.73 19.25 46.24 19.25C46.76 19.25 47.2 19.44 47.58 19.81C47.86 20.19 48 20.63 48 21.15C48 21.66 47.81 22.06 47.44 22.34L26.91 42.31C26.81 42.5 26.65 42.62 26.41 42.66C26.18 42.71 25.97 42.73 25.78 42.73C25.5 42.73 25.24 42.71 25.01 42.66C24.77 42.62 24.61 42.5 24.52 42.31L16.5 34.3C16.12 33.92 15.94 33.48 15.94 32.96C15.94 32.45 16.12 32.05 16.5 31.77C16.78 31.39 17.18 31.2 17.7 31.2C18.21 31.2 18.66 31.39 19.03 31.77L25.78 38.52L45.05 19.81L45.05 19.81Z" />
</svg>