<svg width="32" height="32" viewBox="0 0 32 32" fill="none" xmlns="http://www.w3.org/2000/svg">
<path d="M16.0001 29.3333C8.63628 29.3333 2.66675 23.3638 2.66675 16C2.66675 8.63616 8.63628 2.66663 16.0001 2.66663C23.3639 2.66663 29.3334 8.63616 29.3334 16C29.3253 23.3604 23.3605 29.3252 16.0001 29.3333ZM16.0001 5.33329C10.109 5.33329 5.33341 10.1089 5.33341 16C5.33341 21.891 10.109 26.6666 16.0001 26.6666C21.8911 26.6666 26.6667 21.891 26.6667 16C26.6601 10.1117 21.8884 5.33991 16.0001 5.33329ZM21.3334 22.6666H10.6667V20H21.3334V22.6666ZM11.3334 16C10.2288 16 9.33342 15.1045 9.33342 14C9.33342 12.8954 10.2288 12 11.3334 12C12.438 12 13.3334 12.8954 13.3334 14C13.3334 15.1045 12.438 16 11.3334 16ZM20.6574 15.9813C19.558 15.9813 18.6667 15.09 18.6667 13.9906C18.6667 12.8912 19.558 12 20.6574 12C21.7568 12 22.6481 12.8912 22.6481 13.9906C22.6466 15.0894 21.7562 15.9798 20.6574 15.9813Z" fill="#23A6F0"/>
</svg>
