<svg width="32" height="32" viewBox="0 0 32 32" fill="none" xmlns="http://www.w3.org/2000/svg">
<path d="M10.0001 28.6667C7.9389 28.6581 6.12442 27.306 5.52675 25.3333H2.66675V22.6667H5.52675C6.21328 20.364 8.53613 18.959 10.8943 19.4201C13.2526 19.8811 14.8752 22.0575 14.6439 24.4492C14.4126 26.841 12.4029 28.6661 10.0001 28.6667ZM10.0001 22C8.89551 22 8.00008 22.8954 8.00008 24C8.00008 25.1046 8.89551 26 10.0001 26C11.1047 26 12.0001 25.1046 12.0001 24C12.0001 22.8954 11.1047 22 10.0001 22ZM29.3334 25.3333H16.0001V22.6667H29.3334V25.3333ZM22.0001 20.6667C19.5972 20.6661 17.5876 18.841 17.3563 16.4492C17.125 14.0575 18.7476 11.8811 21.1058 11.4201C23.464 10.959 25.7869 12.364 26.4734 14.6667H29.3334V17.3333H26.4734C25.8757 19.306 24.0613 20.6581 22.0001 20.6667ZM22.0001 14C20.8955 14 20.0001 14.8954 20.0001 16C20.0001 17.1046 20.8955 18 22.0001 18C23.1047 18 24.0001 17.1046 24.0001 16C24.0001 14.8954 23.1047 14 22.0001 14ZM16.0001 17.3333H2.66675V14.6667H16.0001V17.3333ZM12.6667 12.6667C10.2639 12.6661 8.25426 10.841 8.02295 8.44924C7.79164 6.05754 9.41427 3.88114 11.7725 3.42007C14.1307 2.95899 16.4535 4.36398 17.1401 6.66668H29.3334V9.33335H17.1401C16.542 11.3057 14.7278 12.6576 12.6667 12.6667ZM12.6667 6.00001C11.5761 6.00149 10.6877 6.87658 10.6697 7.96713C10.6518 9.05769 11.5109 9.96151 12.601 9.99884C13.6911 10.0362 14.61 9.19324 14.6667 8.10401V8.49068V8.00001C14.6667 6.89544 13.7713 6.00001 12.6667 6.00001ZM6.66675 9.33335H2.66675V6.66668H6.66675V9.33335Z" fill="#E74040"/>
</svg>
