<?xml version="1.0" encoding="iso-8859-1"?>
<!-- Generator: Adobe Illustrator 19.0.0, SVG Export Plug-In . SVG Version: 6.00 Build 0)  -->
<svg version="1.1" id="Capa_1" xmlns="http://www.w3.org/2000/svg" xmlns:xlink="http://www.w3.org/1999/xlink" x="0px" y="0px"
	 viewBox="0 0 512 512" style="enable-background:new 0 0 512 512;" xml:space="preserve">
<circle style="fill:#E21B1B;" cx="256" cy="256" r="256"/>
<g>
	<path style="fill:#FFFFFF;" d="M86.9,185.4l86.1-40v19l-65.1,28.5v0.4l65.1,28.5v19l-86.1-40V185.4z"/>
	<path style="fill:#FFFFFF;" d="M186.3,248l38.4-130h18.1l-38.4,130H186.3z"/>
	<path style="fill:#FFFFFF;" d="M339.3,201.3l-86.1,39.5v-19l66.5-28.5v-0.4l-66.5-28.5v-19l86.1,39.5V201.3L339.3,201.3z"/>
	<polygon style="fill:#FFFFFF;" points="161.8,435.7 258.3,410.4 461.1,207.7 389.8,136.4 187.1,339.2 	"/>
</g>
<rect x="190.234" y="245.783" transform="matrix(0.7071 -0.7071 0.7071 0.7071 -121.1594 299.8599)" width="222.298" height="100.799"/>
<g>
	<polyline style="fill:#6B6B6B;" points="175.6,382.8 161.8,435.7 214.7,421.9 	"/>
	
		<rect x="370.573" y="144.394" transform="matrix(0.7071 -0.7071 0.7071 0.7071 -19.7851 341.822)" style="fill:#6B6B6B;" width="64.299" height="100.799"/>
</g>
<g style="opacity:0.25;">
	<polygon style="fill:#FFFFFF;" points="161.8,435.7 426.8,173.4 389.8,136.4 187.1,339.1 	"/>
</g>
<g>
</g>
<g>
</g>
<g>
</g>
<g>
</g>
<g>
</g>
<g>
</g>
<g>
</g>
<g>
</g>
<g>
</g>
<g>
</g>
<g>
</g>
<g>
</g>
<g>
</g>
<g>
</g>
<g>
</g>
</svg>
