<svg width="465" height="481" viewBox="0 0 465 481" fill="none" xmlns="http://www.w3.org/2000/svg">
<path fill-rule="evenodd" clip-rule="evenodd" d="M361.102 127.237L357.977 132.396L378.875 132.277L376.001 126.885" fill="white"/>
<path fill-rule="evenodd" clip-rule="evenodd" d="M364.258 3.03619C357.462 16.8186 353.187 33.5508 351.441 53.2246C349.638 73.5213 350.416 98.1581 353.775 127.135L381.927 126.76C384.435 97.4323 384.56 72.7836 382.298 52.817C380.11 33.4483 375.485 16.8419 368.436 2.98581C368.036 2.19955 367.222 1.71117 366.341 1.72073C365.456 1.73358 364.65 2.24249 364.258 3.03619Z" fill="#89BFD8"/>
<path fill-rule="evenodd" clip-rule="evenodd" d="M355.731 27.073L376.838 26.3338C372.079 9.625 368.528 1.33233 366.183 1.46073C363.837 1.58871 360.353 10.1263 355.731 27.073Z" fill="#A5D5EB"/>
<path fill-rule="evenodd" clip-rule="evenodd" d="M375.628 132.525L376.952 146.958L371.6 140.315L367.642 146.712L365.187 140.081L359.162 146.056L360.802 132.609L356.991 132.63L360.522 126.8L361.272 127.256L358.553 131.745L377.941 131.633L375.408 126.884L376.183 126.47L379.398 132.504L375.628 132.525Z" fill="#1C4456"/>
<path d="M350.859 53.0514C349.053 73.3795 349.834 98.0441 353.197 127.049C353.221 127.273 353.413 127.441 353.639 127.437L381.786 127.065C382.013 127.061 382.197 126.889 382.219 126.662C384.731 97.3062 384.855 72.631 382.592 52.6305C380.392 33.217 375.756 16.5576 368.683 2.65179C368.204 1.71955 367.238 1.13575 366.188 1.14956C365.139 1.16338 364.186 1.76478 363.724 2.70343C356.895 16.5448 352.61 33.3255 350.859 53.0514ZM354.024 126.553C350.705 97.7754 349.944 73.2972 351.734 53.1282C353.474 33.5066 357.735 16.8269 364.508 3.09529C364.829 2.44696 365.483 2.03425 366.201 2.02649C366.916 2.01666 367.575 2.41456 367.9 3.05029C374.923 16.8562 379.533 33.4137 381.718 52.7303C383.966 72.5747 383.85 97.0658 381.375 126.194L354.024 126.553Z" fill="#1C4456"/>
<path fill-rule="evenodd" clip-rule="evenodd" d="M353.292 83.8834L354.712 89.0213L353.861 126.801L340.258 141.997L337.857 142.028L353.292 83.8834ZM381.726 83.3841L397.69 141.386L395.285 141.38L381.546 126.304L380.355 88.534L381.726 83.3841Z" fill="white"/>
<path d="M352.811 84.1206C352.926 83.6878 353.541 83.6841 353.662 84.1138L355.081 89.2513L355.094 89.3809L354.248 127.157C354.245 127.262 354.205 127.363 354.134 127.441L340.53 142.637C340.448 142.728 340.33 142.784 340.207 142.785L337.807 142.816C337.515 142.821 337.301 142.547 337.376 142.265L352.811 84.1206ZM338.373 141.932L340.005 141.908L353.37 126.978L354.215 89.4256L353.245 85.9121L338.373 141.932ZM354.217 89.3607L354.234 89.4862L354.215 89.4256L354.217 89.3607ZM381.245 83.6213C381.359 83.1885 381.974 83.1849 382.091 83.6187L398.055 141.621C398.133 141.899 397.922 142.176 397.632 142.175L395.231 142.164C395.107 142.164 394.99 142.112 394.908 142.021L381.165 126.95C381.096 126.871 381.055 126.772 381.051 126.668L379.859 88.8978L379.874 88.7712L381.245 83.6213ZM380.737 88.9358L381.925 126.477L395.426 141.288L397.056 141.295L381.677 85.412L380.737 88.9358Z" fill="#1C4456"/>
<path d="M373.398 57.3533C376.838 53.9414 376.863 48.3816 373.45 44.9393C370.036 41.497 364.476 41.4754 361.036 44.8873C357.595 48.2993 357.57 53.8591 360.984 57.3013C364.397 60.7436 369.957 60.7652 373.398 57.3533Z" fill="white"/>
<path d="M373.644 57.4371C377.259 53.8521 377.283 48.0167 373.698 44.4024C370.114 40.7877 364.279 40.7628 360.664 44.3478C357.049 47.9328 357.025 53.7678 360.609 57.3825C364.193 60.9968 370.029 61.0221 373.644 57.4371ZM373.026 56.8138C369.756 60.0568 364.475 60.0347 361.233 56.7644C357.99 53.4942 358.012 48.2141 361.282 44.9711C364.552 41.7281 369.832 41.7502 373.075 45.0205C376.318 48.2907 376.296 53.5708 373.026 56.8138Z" fill="#1C4456"/>
<path d="M370.411 54.3419C368.632 56.1056 365.761 56.0936 363.997 54.3151C362.233 52.5366 362.245 49.6648 364.024 47.9012C365.802 46.1375 368.674 46.1495 370.438 47.928C372.201 49.7065 372.189 52.5783 370.411 54.3419ZM369.793 53.7186C371.226 52.297 371.237 49.9805 369.814 48.5461C368.392 47.1117 366.076 47.1028 364.642 48.5245C363.208 49.9461 363.198 52.2626 364.62 53.697C366.043 55.1314 368.359 55.1403 369.793 53.7186ZM355.539 27.3028L355.511 26.427L376.92 25.8007L376.948 26.6765L355.539 27.3028Z" fill="#1C4456"/>
<path fill-rule="evenodd" clip-rule="evenodd" d="M306.954 197.212C307.098 195.156 307.717 175.968 308.812 139.648C309.086 130.558 302.789 122.584 293.882 120.744C293.285 120.622 292.986 120.559 292.986 120.559C282.237 119.808 272.668 127.331 270.863 137.955L261.646 192.189" fill="white"/>
<path d="M293.091 120.977L293.958 121.156C302.656 122.953 308.805 130.739 308.537 139.617C307.443 175.912 306.823 195.117 306.68 197.164C306.663 197.405 306.846 197.615 307.087 197.632C307.329 197.649 307.539 197.467 307.556 197.225C307.701 195.159 308.319 175.988 309.415 139.643C309.695 130.339 303.251 122.179 294.135 120.297L293.239 120.112L293.181 120.104C282.206 119.336 272.437 127.017 270.594 137.863L261.377 192.098C261.336 192.337 261.497 192.563 261.736 192.604C261.975 192.645 262.202 192.484 262.242 192.245L271.459 138.01C273.225 127.618 282.578 120.257 293.091 120.977Z" fill="#1C4456"/>
<path fill-rule="evenodd" clip-rule="evenodd" d="M314.101 192.438L318.81 155.828C319.263 152.303 316.773 149.078 313.248 148.625C312.976 148.59 312.703 148.572 312.428 148.572C308.065 148.572 304.196 151.378 302.841 155.526L290.775 192.463L314.101 192.438Z" fill="white"/>
<path d="M314.482 192.609C314.703 192.609 314.889 192.445 314.917 192.226L319.626 155.615C320.11 151.85 317.451 148.405 313.685 147.921C313.395 147.884 313.102 147.865 312.809 147.865C308.255 147.865 304.219 150.793 302.805 155.121L290.739 192.058C290.646 192.342 290.858 192.634 291.156 192.634L314.482 192.609ZM314.095 191.732L291.761 191.755L303.639 155.393C304.935 151.427 308.635 148.743 312.809 148.743C313.065 148.743 313.32 148.759 313.574 148.792C316.858 149.214 319.178 152.219 318.755 155.503L314.095 191.732Z" fill="#1C4456"/>
<path fill-rule="evenodd" clip-rule="evenodd" d="M198.023 282.293L242.716 267.725C247.782 266.074 251.478 261.698 252.258 256.428L261.81 191.879H313.601L304.438 273.894C302.824 288.341 295.041 301.384 283.095 309.666L232.258 344.911L198.023 282.293Z" fill="#89BFD8"/>
<path fill-rule="evenodd" clip-rule="evenodd" d="M305.407 266.492C295.068 272.149 287.558 278.587 282.876 285.804C278.194 293.021 274.196 303.848 270.879 318.283C273.743 316.194 276.181 314.439 278.194 313.016C286.438 307.19 292.774 301.891 296.628 295.753C301.895 287.365 304.821 277.611 305.407 266.492Z" fill="#A5D5EB"/>
<path d="M249.151 262.743C249.155 262.737 249.159 262.732 249.162 262.726C249.174 262.71 249.186 262.696 249.198 262.682C250.609 260.866 251.563 258.69 251.913 256.327L261.457 191.839C261.489 191.624 261.674 191.465 261.891 191.465H313.682C313.944 191.465 314.148 191.692 314.118 191.952L310.138 227.572C310.206 227.656 310.243 227.767 310.233 227.885C310.221 228.008 310.159 228.116 310.07 228.188L304.96 273.917C303.329 288.519 295.451 301.698 283.362 310.049L232.797 344.979C232.635 345.091 232.418 345.082 232.267 344.955C225.309 339.151 219.517 331.79 214.895 322.875C210.284 313.983 205.107 300.208 199.357 281.545C199.286 281.315 199.414 281.071 199.643 280.997L242.589 267.298C245.234 266.454 247.5 264.844 249.151 262.743ZM214.066 277.318L200.324 281.702C206.008 300.108 211.127 313.7 215.674 322.471C220.187 331.175 225.821 338.373 232.574 344.067L245.46 335.165L214.066 277.318ZM214.917 277.047L246.186 334.663L282.863 309.327C294.743 301.12 302.484 288.169 304.088 273.819L309.182 228.23L257.673 223.6C257.663 223.6 257.653 223.599 257.644 223.597L252.781 256.456C252.43 258.829 251.506 261.025 250.142 262.888L280.791 284.863C280.988 285.004 281.033 285.278 280.891 285.475C280.75 285.673 280.477 285.718 280.279 285.576L249.602 263.581C247.867 265.673 245.546 267.275 242.855 268.134L214.917 277.047ZM257.773 222.728L309.279 227.358L313.191 192.343H262.27L257.773 222.728Z" fill="#1C4456"/>
<path fill-rule="evenodd" clip-rule="evenodd" d="M117.557 291.363C117.557 291.363 103.902 298.483 76.5923 312.723L88.2133 334.059L123.409 310.358C119.507 297.695 117.557 291.363 117.557 291.363Z" fill="#A5D5EB"/>
<path fill-rule="evenodd" clip-rule="evenodd" d="M389.092 388.216L380.606 319.161L384.995 317.113L403.137 290.194L406.356 289.316C407.52 289.038 408.398 289.038 408.989 289.316C409.58 289.594 410.361 290.375 411.33 291.657V373.586C410.685 375.135 410.1 376.208 409.574 376.804C409.048 377.401 408.17 377.986 406.941 378.56L389.092 388.216ZM310.967 449.077L366.561 428.595L369.195 436.203L405.478 445.566L406.941 448.2C406.611 450.134 406.22 451.5 405.77 452.296C405.32 453.093 404.442 453.97 403.137 454.929L327.353 472.778C325.785 472.936 324.517 472.74 323.549 472.193C322.581 471.646 321.605 470.573 320.623 468.974L310.967 449.077Z" fill="white"/>
<path d="M117.145 290.999L76.1801 312.359C75.9624 312.473 75.8798 312.743 75.9975 312.958L87.6185 334.294C87.7426 334.521 88.0346 334.593 88.2494 334.448L123.444 310.747C123.605 310.639 123.676 310.439 123.619 310.254L117.767 291.259C117.686 290.997 117.387 290.873 117.145 290.999ZM122.684 310.201L88.1587 333.45L76.9818 312.931L117.083 292.021L122.684 310.201Z" fill="#1C4456"/>
<path fill-rule="evenodd" clip-rule="evenodd" d="M243.082 363.93V364.832L202.995 287.268L146.23 311.261C147.288 345.902 152.137 368.92 160.777 380.315C169.418 391.711 184.758 395.32 206.799 391.142H238.693L243.082 363.93Z" fill="#89BFD8"/>
<path d="M243.604 363.929V364.832C243.604 365.001 243.521 365.128 243.405 365.201L239.209 391.211C239.175 391.424 238.992 391.58 238.776 391.58H206.924C184.757 395.774 169.263 392.123 160.511 380.58C151.8 369.091 146.935 346 145.874 311.274C145.869 311.093 145.975 310.927 146.143 310.856L202.908 286.863C203.119 286.774 203.363 286.862 203.469 287.066L242.984 363.525C243.244 363.416 243.604 363.563 243.604 363.929ZM243.491 364.663L243.511 364.544L243.444 364.415C243.484 364.492 243.5 364.578 243.491 364.663ZM202.875 287.829L146.761 311.548C147.836 345.936 152.666 368.781 161.211 380.05C169.733 391.29 184.907 394.86 206.801 390.71L206.882 390.702H238.402L242.598 364.69L202.875 287.829Z" fill="#1C4456"/>
<path fill-rule="evenodd" clip-rule="evenodd" d="M232.549 344.91L235.475 350.47C226.484 357.562 219.364 362.537 214.115 365.392C208.866 368.248 203.112 370.882 196.852 373.293L193.34 367.148C199.047 364.684 204.509 361.953 209.726 358.955C214.943 355.957 222.551 351.275 232.549 344.91Z" fill="#A5D5EB"/>
<path fill-rule="evenodd" clip-rule="evenodd" d="M249.812 463.999L388.506 388.8L380.898 319.453L243.375 387.045" fill="#A5D5EB"/>
<path d="M232.302 344.253C222.015 351.187 214.025 356.253 208.338 359.449C202.662 362.64 197.324 365.067 192.322 366.73C192.092 366.807 191.968 367.056 192.044 367.286C192.121 367.516 192.369 367.64 192.599 367.564C197.657 365.881 203.046 363.431 208.769 360.215C214.48 357.004 222.487 351.927 232.792 344.981C232.994 344.845 233.046 344.572 232.911 344.371C232.775 344.17 232.503 344.117 232.302 344.253Z" fill="#1C4456"/>
<path d="M235.422 350.12C225.871 357.363 217.529 362.911 210.398 366.762C203.298 370.597 198.457 372.631 195.937 372.856C195.696 372.878 195.517 373.091 195.539 373.333C195.561 373.574 195.774 373.752 196.015 373.73C198.696 373.491 203.608 371.427 210.815 367.535C217.99 363.659 226.368 358.088 235.953 350.82C236.146 350.673 236.183 350.398 236.037 350.205C235.891 350.012 235.615 349.974 235.422 350.12Z" fill="#1C4456"/>
<path d="M388.183 388.404C388.168 388.366 388.157 388.327 388.153 388.285L380.547 319.839L243.359 387.439C243.141 387.546 242.879 387.456 242.771 387.239C242.664 387.022 242.753 386.758 242.971 386.651L384.194 317.063L402.26 290.429C402.896 289.492 403.96 288.937 405.093 288.953C405.495 288.959 405.879 289.035 406.234 289.169C406.258 289.129 406.298 289.08 406.355 289.023C406.55 288.827 406.778 288.705 407.039 288.652C407.303 288.6 407.571 288.573 407.84 288.572C410.112 288.569 411.957 290.408 411.96 292.68L412.083 371.276C412.088 374.656 410.404 377.982 407.17 378.799L407.169 378.859C407.167 379.017 407.079 379.162 406.94 379.238L249.811 464.385C249.598 464.501 249.332 464.422 249.216 464.209C249.101 463.996 249.18 463.729 249.393 463.614L388.183 388.404ZM389 387.961L406.295 378.589L407.532 292.354C407.551 290.98 406.454 289.851 405.08 289.831C404.243 289.819 403.456 290.229 402.986 290.922L384.856 317.652C384.813 317.714 384.755 317.765 384.686 317.799L381.302 319.467C381.364 319.534 381.406 319.621 381.417 319.719L389 387.961ZM407.137 289.682C407.926 290.309 408.425 291.281 408.41 292.366L407.183 377.884C409.876 377.068 411.21 374.172 411.205 371.278L411.082 292.682C411.08 290.894 409.629 289.448 407.841 289.45C407.629 289.451 407.419 289.472 407.211 289.513C407.185 289.578 407.161 289.634 407.137 289.682Z" fill="#1C4456"/>
<path fill-rule="evenodd" clip-rule="evenodd" d="M139.208 377.995L143.681 402.281L177.034 461.152C185.81 476.642 204.516 483.492 221.221 477.334L232.911 473.024C244.157 468.878 253.859 461.378 260.704 451.538L290.918 408.112L310.967 449.076L366.561 428.594L327.478 336.162C323.196 326.034 313.267 319.453 302.272 319.453C290.653 319.453 279.508 324.056 271.276 332.255L218.88 384.432" fill="#89BFD8"/>
<path fill-rule="evenodd" clip-rule="evenodd" d="M269.125 334.376C278.488 341.594 288.241 346.763 298.385 349.884C308.528 353.005 319.745 352.323 332.034 347.836C329.291 338.748 326.268 332.408 322.964 328.817C319.027 324.538 311.688 320.729 307.456 319.746C301.903 318.457 291.646 319.949 283.462 323.843C279.525 325.716 274.745 329.227 269.125 334.376Z" fill="#A5D5EB"/>
<path d="M406.799 447.256L406.958 447.217L406.964 447.245C407.875 451.024 405.549 454.828 401.769 455.739L328.674 473.361C325.376 474.156 321.966 472.637 320.343 469.68C320.204 469.657 320.08 469.569 320.016 469.437L290.847 408.959L261.064 451.768C254.167 461.682 244.392 469.238 233.061 473.416L221.371 477.726C204.465 483.959 185.533 477.025 176.65 461.348L143.297 402.477C143.273 402.435 143.256 402.388 143.247 402.34L138.776 378.054C138.732 377.816 138.889 377.587 139.128 377.543C139.366 377.499 139.595 377.657 139.639 377.895L144.097 402.109L177.414 460.915C186.084 476.218 204.565 482.986 221.067 476.902L232.757 472.592C243.919 468.476 253.549 461.033 260.343 451.267L290.556 407.841C290.748 407.565 291.166 407.599 291.312 407.901L310.949 448.616L365.916 428.365L332.929 350.217C313.41 359.732 291.591 355.168 267.527 336.585L219.188 384.723C219.016 384.894 218.739 384.894 218.567 384.722C218.396 384.55 218.397 384.272 218.568 384.101L270.964 331.923C279.279 323.643 290.536 318.994 302.27 318.994C313.441 318.994 323.527 325.684 327.871 335.976L366.816 428.239C366.885 428.288 366.94 428.358 366.972 428.444C366.998 428.516 367.005 428.59 366.994 428.661L369.888 435.517L404.264 444.196C405.492 444.506 406.443 445.48 406.722 446.716C406.763 446.896 406.788 447.077 406.799 447.256ZM406.272 449.276C405.812 449.994 405.08 450.538 404.183 450.741L321.256 469.505C322.739 471.952 325.649 473.187 328.468 472.507L401.564 454.886C404.259 454.236 406.11 451.906 406.272 449.276ZM311.332 449.41L320.655 468.741L403.989 449.884C405.329 449.581 406.169 448.249 405.866 446.91C405.66 445.996 404.957 445.277 404.049 445.047L369.462 436.315C369.328 436.281 369.218 436.186 369.165 436.06L366.258 429.174L311.332 449.41ZM332.588 349.407L327.062 336.317C322.855 326.35 313.089 319.872 302.27 319.872C290.768 319.872 279.734 324.429 271.584 332.545L268.155 335.96C291.957 354.311 313.417 358.774 332.588 349.407Z" fill="#1C4456"/>
<path fill-rule="evenodd" clip-rule="evenodd" d="M167.884 281.414L58.4401 351.307C33.5454 367.205 24.4015 399.163 37.1181 425.823L44.9663 442.277C58.8813 471.448 93.8094 483.817 122.981 469.902C124.539 469.159 126.063 468.347 127.549 467.469L177.616 437.895C186.94 432.387 194.553 424.401 199.608 414.823L200.216 413.671C205.455 403.746 205.618 391.911 200.657 381.845L188.366 356.906C170.122 370.508 160.271 379.872 158.813 384.996C157.513 389.565 142.637 398.979 114.185 413.236C108.014 416.328 100.503 414.162 96.9274 408.258C94.0552 403.515 95.5714 397.343 100.313 394.471C100.856 394.142 101.428 393.866 102.022 393.646L155.302 373.877" fill="#89BFD8"/>
<path fill-rule="evenodd" clip-rule="evenodd" d="M35.6276 423.035C37.0906 427.132 43.443 439.956 45.8687 444.103C48.4202 448.466 51.1356 452.588 54.6468 456.685C58.1241 460.741 62.8023 464.752 69.8622 468.389C72.2241 469.606 74.7604 470.874 77.4699 472.193C75.6476 456.814 73.5993 446.086 71.3252 440.006C69.4818 435.078 67.6068 430.138 64.8879 426.254C58.0603 416.5 47.0251 406.642 31.7828 396.678C30.4444 403.326 31.726 412.111 35.6276 423.035Z" fill="#A5D5EB"/>
<path fill-rule="evenodd" clip-rule="evenodd" d="M160.861 379.438L161.447 387.045C168.488 400.373 172.816 408.419 174.433 411.184C176.135 414.092 179.511 421.261 184.562 432.691C190.223 427.789 194.71 422.717 198.022 417.476C201.334 412.235 203.382 406.969 204.167 401.675C204.947 394.653 202.996 386.753 198.315 377.975C195.98 373.596 192.565 366.281 188.073 356.029C175.34 362.772 166.465 368.332 161.447 372.708C156.428 377.084 156.233 379.328 160.861 379.438Z" fill="white"/>
<path d="M200.054 381.772C204.953 391.712 204.791 403.398 199.618 413.199L199.01 414.352C193.993 423.857 186.438 431.784 177.183 437.25L126.937 466.93C125.516 467.769 124.06 468.548 122.573 469.263C93.6655 483.167 58.9598 471.005 45.0553 442.097L37.4979 426.384C24.8615 400.114 33.6572 368.546 58.0568 352.594L166.368 281.783C166.571 281.65 166.628 281.378 166.496 281.175C166.363 280.972 166.091 280.916 165.888 281.048L57.5763 351.859C32.8081 368.052 23.8796 400.097 36.7067 426.764L44.2647 442.478C58.3787 471.822 93.6093 484.169 122.954 470.054C124.463 469.328 125.941 468.538 127.383 467.686L177.63 438.006C187.024 432.457 194.694 424.41 199.787 414.761L200.395 413.609C205.699 403.559 205.865 391.577 200.841 381.384L188.55 356.445C188.446 356.233 188.192 356.142 187.977 356.238C173.424 362.763 164.495 367.646 161.139 370.931C159.605 372.433 158.755 374.331 158.406 376.633C158.189 378.068 158.174 379.308 158.262 381.525C158.34 383.473 158.334 384.071 158.181 384.608C156.935 388.989 142.041 398.415 113.779 412.577C107.812 415.566 100.55 413.471 97.093 407.763C94.3894 403.299 95.8167 397.487 100.281 394.783C100.831 394.45 101.414 394.174 102.019 393.959L157.497 374.292C157.725 374.211 157.845 373.96 157.764 373.731C157.683 373.503 157.432 373.384 157.203 373.464L101.726 393.132C101.064 393.367 100.428 393.669 99.8265 394.032C94.9471 396.987 93.3869 403.339 96.3422 408.218C100.037 414.318 107.796 416.557 114.172 413.361C142.814 399.009 157.672 389.607 159.025 384.849C159.216 384.178 159.223 383.567 159.14 381.49C159.053 379.326 159.068 378.128 159.274 376.764C159.596 374.638 160.369 372.914 161.754 371.558C164.978 368.402 173.725 363.606 187.95 357.213L200.054 381.772Z" fill="#1C4456"/>
<path fill-rule="evenodd" clip-rule="evenodd" d="M203.081 287.208C192.856 264.493 186.711 249.403 184.647 241.937C177.953 217.737 173.282 196.629 148.28 196.629C123.278 196.629 103.01 216.898 103.01 241.9C103.01 249.021 109.155 271.857 121.444 310.406C139.569 310.333 154.232 309.431 165.435 307.699C176.637 305.966 189.186 299.136 203.081 287.208Z" fill="#89BFD8" stroke="#1C4456" stroke-width="0.877811" stroke-linecap="round" stroke-linejoin="round"/>
<path fill-rule="evenodd" clip-rule="evenodd" d="M202.996 287.139C192.772 264.425 186.627 249.335 184.562 241.868C177.869 217.669 173.197 196.561 148.196 196.561C123.194 196.561 102.926 216.829 102.926 241.832C102.926 248.953 109.07 271.788 121.36 310.338C139.485 310.265 154.148 309.363 165.35 307.63C176.553 305.898 189.102 299.068 202.996 287.139Z" fill="#89BFD8"/>
<path fill-rule="evenodd" clip-rule="evenodd" d="M202.996 287.139C192.772 264.425 186.627 249.335 184.562 241.868C177.869 217.669 173.197 196.561 148.196 196.561C123.194 196.561 102.926 216.829 102.926 241.832C102.926 248.953 109.07 271.788 121.36 310.338C139.485 310.265 154.148 309.363 165.35 307.63C176.553 305.898 189.102 299.068 202.996 287.139Z" stroke="#1C4456" stroke-width="0.877811" stroke-linecap="round" stroke-linejoin="round"/>
<path d="M203.395 286.959C193.181 264.265 187.041 249.188 184.984 241.751C184.715 240.778 183.522 236.431 183.2 235.272C179.262 221.06 176.537 213.803 172.149 207.706C166.609 200.006 159.03 196.121 148.195 196.121C122.951 196.121 102.486 216.586 102.486 241.831C102.486 249.02 108.631 271.858 120.94 310.471C120.999 310.653 121.169 310.776 121.361 310.776C139.505 310.703 154.189 309.799 165.417 308.064C176.712 306.317 189.33 299.449 203.281 287.472C203.429 287.345 203.475 287.136 203.395 286.959ZM165.283 307.196C154.171 308.914 139.635 309.815 121.679 309.897C109.475 271.597 103.364 248.866 103.364 241.831C103.364 217.071 123.435 196.999 148.195 196.999C158.748 196.999 166.062 200.748 171.437 208.218C175.743 214.203 178.443 221.394 182.355 235.507C182.676 236.664 183.868 241.01 184.138 241.985C186.202 249.447 192.307 264.45 202.46 287.019C188.721 298.766 176.325 305.488 165.283 307.196Z" fill="#1C4456"/>
<path d="M127.021 262.664C127.021 262.664 151.465 272.262 188.606 259.21C189.244 258.985 189.944 258.585 190.707 258.006C188.787 254.164 187.616 251.531 187.196 250.106C185.484 244.306 185.326 240.621 183.392 236.939C182.142 234.559 181.705 230.499 180.466 226.698C179.798 224.647 178.53 221.429 176.662 217.042C174.807 213.359 173.538 210.92 172.858 209.727C171.817 207.9 171.816 206.116 170.458 206.314C163.118 207.382 155.202 212.143 146.711 220.597C126.979 240.242 127.021 262.664 127.021 262.664Z" fill="#1C4456"/>
<path fill-rule="evenodd" clip-rule="evenodd" d="M142.72 224.942C144.768 222.601 145.902 221.135 147.694 219.382C149.487 217.63 151.791 215.578 155.887 212.652C158.033 218.31 160.179 224.454 162.91 232.842C167.006 245.424 160.52 247.408 152.669 238.987C147.435 233.373 144.313 228.886 142.72 224.942ZM165.93 224.214C167.389 224.317 168.184 230.649 168.63 231.737C168.878 232.342 168.589 233.035 167.983 233.283C167.429 233.51 166.793 233.29 166.5 232.768C164.79 229.733 163.941 227.912 163.953 227.303C163.985 225.764 164.47 224.112 165.93 224.214Z" fill="white"/>
<path d="M157.724 372.708C177.439 372.708 193.422 356.725 193.422 337.01C193.422 317.295 177.439 301.312 157.724 301.312C138.008 301.312 122.026 317.295 122.026 337.01C122.026 356.725 138.008 372.708 157.724 372.708Z" fill="#1C4456"/>
<path d="M127.431 259.667C124.346 245.973 128.878 232.954 141.069 220.57C153.262 208.184 161.876 202.182 166.764 202.559C167.006 202.577 166.696 202.655 166.715 202.414C166.733 202.172 166.664 202.14 166.422 202.121C166.282 202.11 166.549 201.666 166.405 201.664C161.107 201.608 152.499 207.707 140.443 219.955C128.055 232.539 123.419 245.855 126.575 259.86C126.629 260.097 126.863 260.245 127.1 260.192C127.337 260.138 127.485 259.904 127.431 259.667Z" fill="#1C4456"/>
<path fill-rule="evenodd" clip-rule="evenodd" d="M134.612 364.809L147.779 331.138L180.803 321.566C182.044 321.206 183.343 321.92 183.703 323.162C183.92 323.91 183.751 324.716 183.252 325.314L164.458 347.838L162.912 372.709L134.612 364.809Z" fill="white"/>
<path fill-rule="evenodd" clip-rule="evenodd" d="M147.706 331.158C143.214 336.065 140.358 339.291 139.138 340.835C132.732 348.944 132.968 352.009 136.002 353.981C141.854 357.785 147.916 365.414 152.013 358.391C154.743 353.71 153.308 344.632 147.706 331.158Z" fill="#89BFD8"/>
<path d="M147.454 330.84C147.671 330.603 148.06 330.672 148.183 330.968C153.835 344.563 155.287 353.749 152.463 358.591C150.852 361.352 148.801 362.183 146.287 361.383C144.471 360.804 143.096 359.865 139.444 356.995C138.57 356.307 138.058 355.912 137.509 355.502C136.902 355.051 136.355 354.666 135.834 354.327C132.156 351.936 132.827 348.183 138.865 340.541C140.094 338.986 142.954 335.755 147.454 330.84ZM151.704 358.148C154.3 353.699 152.968 344.943 147.636 331.942C143.419 336.555 140.723 339.606 139.554 341.085C133.792 348.378 133.22 351.581 136.312 353.591C136.85 353.941 137.412 354.336 138.032 354.798C138.59 355.213 139.107 355.612 139.987 356.305C143.539 359.097 144.882 360.014 146.553 360.546C148.669 361.22 150.298 360.56 151.704 358.148ZM165.476 346.707C165.614 346.508 165.888 346.459 166.087 346.597C166.286 346.735 166.335 347.009 166.197 347.208C164.497 349.656 162.932 350.908 161.447 350.908C161.205 350.908 161.008 350.711 161.008 350.469C161.008 350.227 161.205 350.03 161.447 350.03C162.563 350.03 163.925 348.941 165.476 346.707Z" fill="#1C4456"/>
<path d="M125.456 267.956C127.88 267.956 129.845 265.991 129.845 263.567C129.845 261.143 127.88 259.178 125.456 259.178C123.033 259.178 121.067 261.143 121.067 263.567C121.067 265.991 123.033 267.956 125.456 267.956Z" fill="white"/>
<path d="M125.247 268.394C127.913 268.394 130.075 266.232 130.075 263.566C130.075 260.9 127.913 258.738 125.247 258.738C122.58 258.738 120.419 260.9 120.419 263.566C120.419 266.232 122.58 268.394 125.247 268.394ZM125.247 267.516C123.065 267.516 121.297 265.748 121.297 263.566C121.297 261.385 123.065 259.616 125.247 259.616C127.429 259.616 129.197 261.385 129.197 263.566C129.197 265.748 127.429 267.516 125.247 267.516Z" fill="#1C4456"/>
<path d="M125.246 266.052C126.769 266.052 128.026 264.953 128.026 263.565C128.026 262.178 126.769 261.078 125.246 261.078C123.723 261.078 122.466 262.178 122.466 263.565C122.466 264.953 123.723 266.052 125.246 266.052ZM125.246 265.175C124.183 265.175 123.344 264.44 123.344 263.565C123.344 262.69 124.183 261.956 125.246 261.956C126.308 261.956 127.148 262.69 127.148 263.565C127.148 264.44 126.308 265.175 125.246 265.175Z" fill="#1C4456"/>
<path fill-rule="evenodd" clip-rule="evenodd" d="M162.908 370.659L161.236 387.045L136.364 401.675L116.677 411.916L107.021 399.042C115.095 398.574 119.678 397.306 120.773 395.238C124.014 389.116 128.598 379.07 134.526 365.1L162.908 370.659Z" fill="white"/>
<path d="M162.994 369.935C163.217 369.979 163.369 370.185 163.346 370.41L161.674 386.796C161.659 386.935 161.58 387.059 161.46 387.13L136.569 401.771L116.881 412.012C116.69 412.111 116.456 412.058 116.327 411.886L106.671 399.011C106.461 398.732 106.648 398.33 106.997 398.31C114.908 397.852 119.397 396.61 120.387 394.739C123.62 388.632 128.199 378.595 134.123 364.635C134.204 364.444 134.408 364.336 134.612 364.375L162.994 369.935ZM134.792 365.305C128.927 379.116 124.385 389.063 121.163 395.15C120.004 397.339 115.594 398.622 107.862 399.135L116.806 411.061L136.143 401.003L160.823 386.486L162.432 370.72L134.792 365.305ZM161.014 386.373L160.8 386.707L160.823 386.486L161.014 386.373Z" fill="#1C4456"/>
<path fill-rule="evenodd" clip-rule="evenodd" d="M56.1087 250.985C53.1996 250.985 50.8418 248.627 50.8418 245.718C50.8418 242.809 53.1996 240.451 56.1087 240.451C59.0177 240.451 61.3755 242.809 61.3755 245.718C61.3755 248.627 59.0177 250.985 56.1087 250.985ZM107.607 264.152L108.987 269.419C108.656 269.531 108.328 269.653 108.004 269.784C98.7515 273.529 94.287 284.065 98.0317 293.318L100.794 300.142L95.527 303.068L92.4114 292.925C89.0505 281.983 94.3139 270.245 104.719 265.476L107.607 264.152Z" fill="white"/>
<path d="M68.2465 270.362C68.26 270.272 68.2448 270.18 68.2038 270.099L58.2553 250.495C58.1453 250.278 57.8814 250.192 57.6654 250.301C57.4489 250.411 57.3629 250.675 57.4723 250.892L67.3576 270.372L66.2077 278.133C66.1784 278.332 66.2873 278.525 66.4722 278.603L74.4971 281.961L87.6151 306.339C87.7304 306.552 87.9967 306.632 88.2097 306.518C88.4233 306.402 88.5035 306.136 88.3882 305.923L75.1965 281.408C75.1491 281.32 75.0724 281.25 74.9793 281.211L67.1259 277.924L68.2465 270.362Z" fill="#1C4456"/>
<path d="M55.8972 251.423C52.7458 251.423 50.1914 248.869 50.1914 245.717C50.1914 242.566 52.7458 240.012 55.8972 240.012C59.0479 240.012 61.6029 242.566 61.6029 245.717C61.6029 248.869 59.0479 251.423 55.8972 251.423ZM55.8972 250.545C58.5634 250.545 60.7251 248.384 60.7251 245.717C60.7251 243.051 58.5634 240.89 55.8972 240.89C53.2304 240.89 51.0692 243.051 51.0692 245.717C51.0692 248.384 53.2304 250.545 55.8972 250.545ZM107.212 263.752C107.46 263.639 107.751 263.776 107.82 264.04L109.2 269.307C109.258 269.53 109.135 269.76 108.916 269.834C108.593 269.943 108.273 270.062 107.957 270.19C98.9292 273.844 94.5729 284.125 98.227 293.153L100.989 299.977C101.072 300.183 100.989 300.418 100.795 300.526L95.5286 303.452C95.2845 303.587 94.9779 303.463 94.8959 303.196L91.7803 293.053C88.3545 281.901 93.7191 269.937 104.325 265.076L107.212 263.752ZM104.691 265.874C94.4851 270.551 89.323 282.064 92.6195 292.795L95.576 302.421L100.03 299.947L97.4135 293.482C93.5775 284.005 98.1503 273.213 107.628 269.377C107.833 269.294 108.04 269.214 108.248 269.138L107.103 264.768L104.691 265.874Z" fill="#1C4456"/>
<path d="M67.0435 423.23C74.7085 433.678 79.5909 450.375 81.7123 473.323L80.838 473.404C78.6991 450.264 73.7465 433.562 66.0018 423.3C59.6716 414.912 52.8745 408.003 45.8754 402.434C40.739 398.346 35.9327 395.315 31.7222 393.203L32.116 392.418C36.3787 394.557 41.2365 397.62 46.4226 401.747C53.4076 407.306 60.1901 414.184 66.5121 422.519L95.989 406.557C96.202 406.441 96.4683 406.52 96.5842 406.733C96.6994 406.946 96.6204 407.213 96.4068 407.328L67.0435 423.23ZM108.916 414.931C108.8 414.718 108.879 414.452 109.091 414.335C109.304 414.219 109.57 414.298 109.687 414.51L135.792 462.327C135.908 462.539 135.83 462.806 135.617 462.922C135.404 463.038 135.138 462.96 135.022 462.748L108.916 414.931ZM99.3381 394.752C99.4452 394.969 99.3551 395.233 99.1374 395.339C98.9203 395.446 98.657 395.357 98.5504 395.139L72.6884 342.471C72.5813 342.253 72.6714 341.99 72.8891 341.883C73.1063 341.776 73.3696 341.866 73.4761 342.084L99.3381 394.752Z" fill="#1C4456"/>
<path d="M121.653 310.676L134.61 337.01" stroke="#1C4456" stroke-width="0.877811" stroke-linecap="round" stroke-linejoin="round"/>
<path d="M161.384 386.898L184.563 432.488" stroke="#1C4456" stroke-width="0.877811" stroke-linecap="round" stroke-linejoin="round"/>
<path fill-rule="evenodd" clip-rule="evenodd" d="M163.301 330.854C160.458 328.816 158.132 328.307 156.323 329.325C153.61 330.854 150.121 333.911 152.059 337.731C153.998 341.552 155.548 344.608 157.486 344.608C159.424 344.608 162.913 344.99 164.851 340.787C166.143 337.985 165.626 334.674 163.301 330.854Z" fill="#89BFD8"/>
<path fill-rule="evenodd" clip-rule="evenodd" d="M163.14 332.612C162.94 334.684 162.249 336.019 161.07 336.618C160.038 337.141 158.424 337.446 156.229 337.532C155.26 337.57 154.444 336.815 154.406 335.846C154.392 335.514 154.474 335.186 154.64 334.898C155.848 332.811 156.918 331.532 157.851 331.058C158.83 330.561 160.109 330.445 161.685 330.711C162.593 330.864 163.229 331.694 163.14 332.612Z" fill="white"/>
<path d="M162.413 333.306C162.118 333.77 161.533 334.085 160.86 334.085C159.891 334.085 159.105 333.43 159.105 332.622C159.105 331.833 159.854 331.19 160.791 331.16C159.584 331.03 158.602 331.164 157.84 331.551C157.003 331.975 155.978 333.2 154.81 335.219C154.686 335.435 154.625 335.681 154.635 335.93C154.663 336.657 155.275 337.222 156.002 337.194C158.14 337.11 159.698 336.816 160.662 336.327C161.569 335.867 162.159 334.873 162.413 333.306ZM161.588 331.29C161.733 331.337 161.867 331.408 161.985 331.499C161.865 331.415 161.732 331.345 161.588 331.29ZM163.368 332.755C163.154 334.962 162.394 336.433 161.059 337.11C159.96 337.667 158.29 337.983 156.036 338.071C154.825 338.119 153.805 337.176 153.758 335.964C153.741 335.549 153.843 335.139 154.051 334.779C155.297 332.624 156.414 331.29 157.443 330.768C158.516 330.223 159.886 330.099 161.548 330.379C162.684 330.571 163.478 331.608 163.368 332.755Z" fill="#1C4456"/>
<path fill-rule="evenodd" clip-rule="evenodd" d="M181.635 321.361C180.266 321.019 178.822 321.254 177.302 322.067V322.067C177.017 322.22 176.91 322.574 177.062 322.859C177.094 322.92 177.137 322.973 177.187 323.019C177.768 323.539 178.47 323.834 179.294 323.904C180.386 323.998 181.655 323.998 183.098 323.904C183.683 322.599 183.196 321.752 181.635 321.361Z" fill="#89BFD8"/>
<path d="M182.035 320.872C180.554 320.502 178.999 320.755 177.388 321.617C176.89 321.884 176.702 322.505 176.969 323.003C177.025 323.108 177.099 323.203 177.188 323.283C177.84 323.867 178.633 324.2 179.55 324.279C180.666 324.374 181.956 324.374 183.42 324.279C183.583 324.269 183.726 324.169 183.792 324.021C184.495 322.452 183.848 321.325 182.035 320.872ZM179.625 323.405C178.894 323.342 178.282 323.084 177.774 322.629C177.761 322.618 177.75 322.605 177.743 322.589C177.704 322.518 177.731 322.43 177.802 322.391C179.231 321.627 180.565 321.41 181.822 321.724C183.026 322.025 183.399 322.53 183.088 323.42C181.779 323.495 180.624 323.49 179.625 323.405Z" fill="#1C4456"/>
<path d="M320.917 449.954C323.341 449.954 325.306 447.989 325.306 445.565C325.306 443.141 323.341 441.176 320.917 441.176C318.493 441.176 316.528 443.141 316.528 445.565C316.528 447.989 318.493 449.954 320.917 449.954Z" fill="white"/>
<path d="M320.707 450.394C323.374 450.394 325.535 448.232 325.535 445.566C325.535 442.9 323.374 440.738 320.707 440.738C318.041 440.738 315.879 442.9 315.879 445.566C315.879 448.232 318.041 450.394 320.707 450.394ZM320.707 449.516C318.526 449.516 316.757 447.748 316.757 445.566C316.757 443.385 318.526 441.616 320.707 441.616C322.889 441.616 324.657 443.385 324.657 445.566C324.657 447.748 322.889 449.516 320.707 449.516Z" fill="#1C4456"/>
<path d="M387.045 380.315C389.469 380.315 391.434 378.35 391.434 375.926C391.434 373.502 389.469 371.537 387.045 371.537C384.621 371.537 382.656 373.502 382.656 375.926C382.656 378.35 384.621 380.315 387.045 380.315Z" fill="white"/>
<path d="M387.044 380.754C389.71 380.754 391.872 378.592 391.872 375.926C391.872 373.259 389.71 371.098 387.044 371.098C384.378 371.098 382.216 373.259 382.216 375.926C382.216 378.592 384.378 380.754 387.044 380.754ZM387.044 379.876C384.862 379.876 383.094 378.107 383.094 375.926C383.094 373.744 384.862 371.975 387.044 371.975C389.225 371.975 390.994 373.744 390.994 375.926C390.994 378.107 389.225 379.876 387.044 379.876Z" fill="#1C4456"/>
<path d="M320.708 448.052C322.231 448.052 323.488 446.953 323.488 445.565C323.488 444.178 322.231 443.078 320.708 443.078C319.185 443.078 317.929 444.178 317.929 445.565C317.929 446.953 319.185 448.052 320.708 448.052ZM320.708 447.175C319.646 447.175 318.807 446.44 318.807 445.565C318.807 444.69 319.646 443.956 320.708 443.956C321.771 443.956 322.61 444.69 322.61 445.565C322.61 446.44 321.771 447.175 320.708 447.175Z" fill="#1C4456"/>
<path d="M387.043 378.414C388.566 378.414 389.823 377.314 389.823 375.927C389.823 374.539 388.566 373.439 387.043 373.439C385.52 373.439 384.263 374.539 384.263 375.927C384.263 377.314 385.52 378.414 387.043 378.414ZM387.043 377.536C385.98 377.536 385.141 376.801 385.141 375.927C385.141 375.052 385.98 374.317 387.043 374.317C388.106 374.317 388.945 375.052 388.945 375.927C388.945 376.801 388.106 377.536 387.043 377.536Z" fill="#1C4456"/>
<path d="M129.34 263.89C133.937 268.087 143.975 269.957 159.493 269.564C174.978 269.172 185.975 266.816 192.497 262.468C192.698 262.334 192.752 262.062 192.618 261.86C192.484 261.658 192.211 261.603 192.01 261.738C185.656 265.974 174.805 268.299 159.47 268.687C144.167 269.074 134.308 267.238 129.932 263.242C129.752 263.079 129.475 263.091 129.312 263.27C129.148 263.449 129.161 263.727 129.34 263.89Z" fill="#1C4456"/>
<path d="M305.173 263.195C293.074 270.813 284.739 278.069 280.169 284.977C275.604 291.88 271.492 303.53 267.818 319.943L268.675 320.135C272.327 303.817 276.408 292.255 280.901 285.462C285.391 278.675 293.637 271.495 305.641 263.939L305.173 263.195Z" fill="#1C4456"/>
<path fill-rule="evenodd" clip-rule="evenodd" d="M135.634 362.495C140.351 364.173 144.716 365.448 148.727 366.32C152.652 367.173 157.264 367.911 162.563 368.531C163.686 368.663 164.491 369.681 164.359 370.804C164.349 370.891 164.334 370.977 164.312 371.062L164.255 371.292C163.965 372.456 162.842 373.212 161.654 373.043C156.728 372.342 152.126 371.565 147.849 370.709C143.511 369.841 139.132 368.343 134.712 366.215C133.749 365.751 133.244 364.674 133.503 363.637C133.722 362.762 134.608 362.231 135.483 362.449C135.534 362.462 135.584 362.477 135.634 362.495Z" fill="white"/>
<path d="M152.975 367.966C151.476 367.702 150.056 367.423 148.714 367.132C147.079 366.776 145.376 366.318 143.605 365.755L142.972 368.496C144.744 369.025 146.485 369.46 148.195 369.803C149.553 370.074 150.945 370.338 152.369 370.594L152.975 367.966ZM153.841 368.116L153.234 370.748C156.016 371.237 158.922 371.697 161.951 372.128C162.693 372.233 163.395 371.761 163.577 371.033L163.634 370.803C163.646 370.755 163.655 370.706 163.661 370.656C163.736 370.014 163.277 369.432 162.634 369.357C159.46 368.985 156.529 368.571 153.841 368.116ZM142.767 365.484C140.485 364.727 138.092 363.803 135.588 362.712C135.533 362.688 135.475 362.669 135.417 362.654C134.838 362.51 134.252 362.863 134.107 363.441L134.015 363.811C133.842 364.505 134.196 365.223 134.852 365.507C137.332 366.584 139.759 367.494 142.131 368.238L142.767 365.484ZM135.938 361.908C140.669 363.968 144.99 365.424 148.9 366.274C152.826 367.127 157.437 367.864 162.737 368.485C163.86 368.617 164.664 369.635 164.533 370.759C164.523 370.845 164.507 370.931 164.486 371.016L164.428 371.246C164.138 372.41 163.015 373.166 161.828 372.997C156.901 372.296 152.3 371.518 148.023 370.663C143.7 369.798 139.194 368.348 134.503 366.312C133.453 365.857 132.886 364.709 133.163 363.599L133.256 363.229C133.517 362.18 134.58 361.541 135.63 361.803C135.735 361.829 135.838 361.864 135.938 361.908Z" fill="#1C4456"/>
<path fill-rule="evenodd" clip-rule="evenodd" d="M83.6133 314.48L87.7097 312.724L91.8062 321.21L87.7097 323.843L83.6133 314.48ZM97.3656 317.699C96.2731 317.699 95.174 317.519 94.4396 316.821C93.6537 316.075 93.2692 314.772 93.2692 313.602C93.2692 312.666 93.6186 311.366 94.147 310.676C94.8955 309.699 96.0396 309.506 97.3656 309.506C98.5466 309.506 99.5444 309.584 100.292 310.384C100.976 311.116 101.462 312.521 101.462 313.602C101.462 314.953 101.007 316.367 99.9991 317.114C99.3185 317.617 98.2774 317.699 97.3656 317.699Z" fill="#89BFD8"/>
<path d="M83.3281 314.25L88.2169 312.155L92.6645 321.369L87.8085 324.491L83.3281 314.25ZM88.2 323.195L91.5362 321.05L87.7909 313.293L84.4868 314.709L88.2 323.195ZM97.6598 318.137C96.2589 318.137 95.1862 317.855 94.4318 317.139C93.5956 316.345 93.1245 314.975 93.1245 313.602C93.1245 312.526 93.5236 311.152 94.093 310.409C94.8608 309.406 95.9475 309.066 97.6598 309.066C99.2902 309.066 100.152 309.276 100.907 310.083C101.657 310.886 102.195 312.389 102.195 313.602C102.195 315.203 101.622 316.676 100.554 317.466C99.8719 317.971 98.9561 318.137 97.6598 318.137ZM97.6598 317.259C98.7793 317.259 99.546 317.12 100.032 316.76C100.847 316.157 101.317 314.948 101.317 313.602C101.317 312.602 100.856 311.315 100.265 310.683C99.7244 310.105 99.0667 309.944 97.6598 309.944C96.1939 309.944 95.3535 310.207 94.7894 310.943C94.347 311.52 94.0023 312.708 94.0023 313.602C94.0023 314.753 94.3944 315.893 95.0358 316.502C95.5929 317.03 96.4625 317.259 97.6598 317.259Z" fill="#1C4456"/>
<path d="M313.015 191.293H262.102C261.133 191.293 260.347 192.079 260.347 193.049C260.347 194.018 261.133 194.804 262.102 194.804H313.015C313.985 194.804 314.771 194.018 314.771 193.049C314.771 192.079 313.985 191.293 313.015 191.293Z" fill="white"/>
<path d="M262.102 191.293H313.015C313.985 191.293 314.771 192.079 314.771 193.049C314.771 194.018 313.985 194.804 313.015 194.804H262.102C261.133 194.804 260.347 194.018 260.347 193.049C260.347 192.079 261.133 191.293 262.102 191.293ZM262.102 192.171C261.618 192.171 261.224 192.564 261.224 193.049C261.224 193.533 261.618 193.926 262.102 193.926H313.015C313.5 193.926 313.893 193.533 313.893 193.049C313.893 192.564 313.5 192.171 313.015 192.171H262.102Z" fill="#1C4456"/>
<path d="M185.587 431.659L162.474 386.296C162.143 385.647 161.351 385.39 160.703 385.72C160.055 386.05 159.797 386.843 160.127 387.491L183.241 432.855C183.571 433.503 184.364 433.761 185.012 433.43C185.66 433.1 185.917 432.307 185.587 431.659Z" fill="white" stroke="#1C4456" stroke-width="0.877811"/>
<path fill-rule="evenodd" clip-rule="evenodd" d="M171.463 314.952C169.796 316.365 161.982 310.366 160.311 309.659C159.413 309.279 158.993 308.242 159.372 307.344C159.721 306.521 160.63 306.087 161.489 306.335C166.622 307.817 169.516 308.892 170.171 309.56C171.829 311.251 173.131 313.539 171.463 314.952Z" fill="white"/>
<path fill-rule="evenodd" clip-rule="evenodd" d="M210.794 354.844L228.273 343.773C228.546 343.599 228.908 343.681 229.08 343.954C229.084 343.961 229.088 343.968 229.093 343.974L235.781 355.546C235.937 355.816 235.853 356.161 235.591 356.331L218.424 367.406C218.153 367.581 217.79 367.503 217.615 367.231C217.613 367.227 217.609 367.222 217.606 367.217L210.607 355.641C210.442 355.369 210.526 355.015 210.794 354.844Z" fill="white"/>
<path d="M209.974 355.022L228.337 343.548C228.611 343.377 228.972 343.46 229.143 343.734L236.586 355.645C236.758 355.919 236.674 356.28 236.4 356.451L218.037 367.926C217.763 368.097 217.402 368.013 217.231 367.739L209.788 355.829C209.617 355.554 209.7 355.193 209.974 355.022ZM210.688 355.612L217.82 367.026L235.687 355.862L228.554 344.448L210.688 355.612Z" fill="#1C4456"/>
<path d="M214.398 355.202L226.308 347.759C226.583 347.588 226.944 347.671 227.115 347.945L232.077 355.886C232.248 356.16 232.165 356.521 231.891 356.692L219.98 364.135C219.706 364.306 219.344 364.223 219.174 363.949L214.212 356.008C214.04 355.734 214.124 355.373 214.398 355.202ZM219.763 363.235L231.177 356.102L226.526 348.658L215.111 355.791L219.763 363.235Z" fill="#1C4456"/>
<path d="M455.324 147.479V140.322C455.324 140.019 455.572 139.771 455.875 139.771C456.177 139.771 456.425 140.019 456.425 140.322V147.479H463.582C463.885 147.479 464.132 147.727 464.132 148.029C464.132 148.332 463.885 148.58 463.582 148.58H456.425V155.737C456.425 156.039 456.177 156.287 455.875 156.287C455.572 156.287 455.324 156.039 455.324 155.737V148.58H448.167C447.864 148.58 447.617 148.332 447.617 148.029C447.617 147.727 447.864 147.479 448.167 147.479H455.324Z" fill="#1C4456"/>
<path d="M7.70729 140.619V133.463C7.70729 133.16 7.95503 132.912 8.25781 132.912C8.5606 132.912 8.80834 133.16 8.80834 133.463V140.619H15.9651C16.2679 140.619 16.5156 140.867 16.5156 141.17C16.5156 141.473 16.2679 141.72 15.9651 141.72H8.80834V148.877C8.80834 149.18 8.5606 149.428 8.25781 149.428C7.95503 149.428 7.70729 149.18 7.70729 148.877V141.72H0.550521C0.247734 141.72 0 141.473 0 141.17C0 140.867 0.247734 140.619 0.550521 140.619H7.70729Z" fill="#1C4456"/>
<path d="M449.323 419.309V412.152C449.323 411.849 449.57 411.602 449.873 411.602C450.176 411.602 450.424 411.849 450.424 412.152V419.309H457.58C457.883 419.309 458.131 419.557 458.131 419.859C458.131 420.162 457.883 420.41 457.58 420.41H450.424V427.567C450.424 427.869 450.176 428.117 449.873 428.117C449.57 428.117 449.323 427.869 449.323 427.567V420.41H442.166C441.863 420.41 441.615 420.162 441.615 419.859C441.615 419.557 441.863 419.309 442.166 419.309H449.323Z" fill="#1C4456"/>
<path d="M22.3482 271.88V266.375C22.3482 266.072 22.5959 265.824 22.8987 265.824C23.2015 265.824 23.4493 266.072 23.4493 266.375V271.88H28.9545C29.2572 271.88 29.505 272.128 29.505 272.43C29.505 272.733 29.2572 272.981 28.9545 272.981H23.4493V278.486C23.4493 278.789 23.2015 279.037 22.8987 279.037C22.5959 279.037 22.3482 278.789 22.3482 278.486V272.981H16.843C16.5402 272.981 16.2925 272.733 16.2925 272.43C16.2925 272.128 16.5402 271.88 16.843 271.88H22.3482Z" fill="#1C4456"/>
<path d="M359.072 265.603V260.373C359.072 260.07 359.32 259.822 359.623 259.822C359.926 259.822 360.174 260.07 360.174 260.373V265.603H365.403C365.706 265.603 365.954 265.85 365.954 266.153C365.954 266.456 365.706 266.704 365.403 266.704H360.174V271.934C360.174 272.237 359.926 272.484 359.623 272.484C359.32 272.484 359.072 272.237 359.072 271.934V266.704H353.843C353.54 266.704 353.292 266.456 353.292 266.153C353.292 265.85 353.54 265.603 353.843 265.603H359.072Z" fill="#1C4456"/>
<path d="M251.884 101.82V96.5896C251.884 96.2868 252.132 96.0391 252.435 96.0391C252.738 96.0391 252.986 96.2868 252.986 96.5896V101.82H258.215C258.518 101.82 258.766 102.067 258.766 102.37C258.766 102.673 258.518 102.921 258.215 102.921H252.986V108.151C252.986 108.453 252.738 108.701 252.435 108.701C252.132 108.701 251.884 108.453 251.884 108.151V102.921H246.655C246.352 102.921 246.104 102.673 246.104 102.37C246.104 102.067 246.352 101.82 246.655 101.82H251.884Z" fill="#1C4456"/>
<path d="M368.304 156.572C368.305 156.344 368.487 156.16 368.715 156.16C368.943 156.16 369.127 156.343 369.127 156.571L369.303 192.97C369.345 201.863 376.592 209.036 385.486 208.994C387.561 208.985 389.611 208.575 391.526 207.786L399.283 204.602C406.804 201.512 415.4 205.106 418.491 212.62C419.876 215.997 419.959 219.766 418.724 223.2L412.721 239.87C409.673 248.331 410.84 257.742 415.867 265.197L423.229 276.127C423.359 276.317 423.306 276.571 423.116 276.701C422.927 276.826 422.672 276.778 422.541 276.588L415.173 265.662C409.997 257.982 408.796 248.3 411.936 239.59L417.939 222.92C419.109 219.68 419.031 216.123 417.719 212.933C414.803 205.838 406.688 202.445 399.593 205.361L391.836 208.545C389.82 209.37 387.661 209.801 385.481 209.815C376.131 209.857 368.517 202.32 368.475 192.969L368.304 156.572Z" fill="#1C4456"/>
<path d="M96.52 167.805V154.758H103.854V151.176H96.52V131.989H92.9384V151.176H67.0995L88.2481 106.406H84.3254L63.1768 151.176V154.758H92.9384V167.805H96.52Z" fill="#5D8A9E"/>
<path d="M141.35 169.085C151.584 169.085 160.026 160.642 160.026 150.409V123.803C160.026 113.569 151.584 105.127 141.35 105.127C131.117 105.127 122.675 113.569 122.675 123.803V150.409C122.675 160.642 131.117 169.085 141.35 169.085ZM141.35 165.503C133.078 165.503 126.256 158.681 126.256 150.409V123.803C126.256 115.531 133.078 108.709 141.35 108.709C149.622 108.709 156.444 115.531 156.444 123.803V150.409C156.444 158.681 149.622 165.503 141.35 165.503Z" fill="#5D8A9E"/>
<path d="M212.188 167.805V154.758H219.522V151.176H212.188V131.989H208.606V151.176H182.768L203.916 106.406H199.993L178.845 151.176V154.758H208.606V167.805H212.188Z" fill="#5D8A9E"/>
</svg>
