<svg width="129" height="35" viewBox="0 0 129 35" fill="none" xmlns="http://www.w3.org/2000/svg">
<path d="M44.2804 19.342H42.7716V25.0788H39.8418V10.1665H45.6664C48.5787 10.1665 50.4208 12.1665 50.4208 14.763C50.4208 16.8507 49.1927 18.4297 47.2453 18.9911L50.4383 25.0964H47.1927L44.2804 19.342ZM45.1225 16.8332C46.5962 16.8332 47.4559 15.9911 47.4559 14.763C47.4559 13.4998 46.5962 12.6753 45.1225 12.6753H42.7716V16.8156H45.1225V16.8332Z" fill="#063E58"/>
<path d="M60.9296 22.1154C60.4033 23.9048 58.7541 25.3961 56.2103 25.3961C53.3682 25.3961 50.8594 23.361 50.8594 19.8697C50.8594 16.5715 53.298 14.4136 55.9471 14.4136C59.1401 14.4136 61.0524 16.4487 61.0524 19.782C61.0524 20.1855 61.0173 20.6066 61.0173 20.6417H53.6138C53.6839 22.0101 54.8418 22.9925 56.2278 22.9925C57.5261 22.9925 58.2454 22.3434 58.5787 21.4136L60.9296 22.1154ZM58.3331 18.7294C58.2804 17.7118 57.6138 16.6943 56.0173 16.6943C54.5611 16.6943 53.7717 17.782 53.7015 18.7294H58.3331Z" fill="#063E58"/>
<path d="M64.9119 19.1329L67.4557 18.7469C68.0522 18.6592 68.2277 18.361 68.2277 18.0101C68.2277 17.2732 67.6663 16.6592 66.4733 16.6592C65.2452 16.6592 64.5785 17.4311 64.4908 18.3434L61.9996 17.8171C62.175 16.2031 63.6663 14.4136 66.4382 14.4136C69.7189 14.4136 70.947 16.2732 70.947 18.3434V23.4311C70.947 23.975 71.0172 24.7118 71.0698 25.0803H68.5084C68.4382 24.7996 68.4031 24.2382 68.4031 23.8347C67.8768 24.6592 66.8943 25.3785 65.3505 25.3785C63.1399 25.3785 61.7891 23.8873 61.7891 22.2557C61.8242 20.4136 63.1926 19.396 64.9119 19.1329ZM68.2452 20.9048V20.4487L65.9119 20.7996C65.1926 20.9048 64.6312 21.3083 64.6312 22.0978C64.6312 22.7118 65.0698 23.2908 65.9821 23.2908C67.1575 23.3083 68.2452 22.7294 68.2452 20.9048Z" fill="#063E58"/>
<path d="M72.9644 25.0967V9.85107H75.7538V25.0792H72.9644V25.0967Z" fill="#063E58"/>
<path d="M85.5435 14.5349C85.4031 13.7103 84.7189 12.4296 82.8242 12.4296C81.4207 12.4296 80.4909 13.3419 80.4909 14.3244C80.4909 15.1489 81.0172 15.798 82.1049 16.0086L84.1926 16.4121C86.9119 16.9384 88.3681 18.7103 88.3681 20.8156C88.3681 23.1139 86.4558 25.4296 82.9821 25.4296C79.0347 25.4296 77.2803 22.8858 77.0522 20.763L79.754 20.0437C79.8768 21.5174 80.9119 22.8331 83.0172 22.8331C84.5786 22.8331 85.4382 22.0612 85.4382 21.0086C85.4382 20.1489 84.7891 19.4647 83.6312 19.2366L81.5435 18.8156C79.1751 18.3244 77.6312 16.798 77.6312 14.5524C77.6312 11.9033 80.0172 9.88574 82.8242 9.88574C86.4382 9.88574 87.8242 12.0787 88.1751 13.7629L85.5435 14.5349Z" fill="#063E58"/>
<path d="M93.3332 14.7293H95.4209V17.2206H93.3332V21.5539C93.3332 22.4662 93.7543 22.7469 94.5613 22.7469C94.8946 22.7469 95.2806 22.7118 95.4209 22.6592V24.975C95.1753 25.0802 94.6666 25.2206 93.842 25.2206C91.8244 25.2206 90.5613 24.0276 90.5613 22.0276V17.2206H88.6841V14.7293H89.2104C90.2981 14.7293 90.8069 14.01 90.8069 13.0802V11.6416H93.3332V14.7293Z" fill="#063E58"/>
<path d="M99.491 19.1329L102.035 18.7469C102.631 18.6592 102.807 18.361 102.807 18.0101C102.807 17.2732 102.245 16.6592 101.052 16.6592C99.8243 16.6592 99.1576 17.4311 99.0699 18.3434L96.5787 17.8171C96.7541 16.2031 98.2454 14.4136 101.017 14.4136C104.298 14.4136 105.526 16.2732 105.526 18.3434V23.4311C105.526 23.975 105.596 24.7118 105.649 25.0803H103.087C103.017 24.7996 102.982 24.2382 102.982 23.8347C102.456 24.6592 101.473 25.3785 99.9296 25.3785C97.719 25.3785 96.3682 23.8873 96.3682 22.2557C96.3857 20.4136 97.7541 19.396 99.491 19.1329ZM102.807 20.9048V20.4487L100.473 20.7996C99.7541 20.9048 99.1927 21.3083 99.1927 22.0978C99.1927 22.7118 99.6313 23.2908 100.544 23.2908C101.719 23.3083 102.807 22.7294 102.807 20.9048Z" fill="#063E58"/>
<path d="M110.912 14.7293H113V17.2206H110.912V21.5539C110.912 22.4662 111.333 22.7469 112.14 22.7469C112.474 22.7469 112.86 22.7118 113 22.6592V24.975C112.754 25.0802 112.246 25.2206 111.421 25.2206C109.404 25.2206 108.14 24.0276 108.14 22.0276V17.2206H106.263V14.7293H106.789C107.877 14.7293 108.386 14.01 108.386 13.0802V11.6416H110.912V14.7293Z" fill="#063E58"/>
<path d="M115.93 9.60547C116.895 9.60547 117.649 10.3774 117.649 11.3599C117.649 12.2897 116.895 13.0616 115.93 13.0616C114.982 13.0616 114.21 12.2897 114.21 11.3599C114.21 10.3774 114.982 9.60547 115.93 9.60547ZM114.544 25.0967V14.7458H117.333V25.0967H114.544Z" fill="#063E58"/>
<path d="M121.509 19.9209C121.509 21.7981 122.737 22.8508 124.158 22.8508C125.596 22.8508 126.298 21.9034 126.544 21.0964L129 21.9209C128.544 23.6402 126.912 25.4122 124.158 25.4122C121.105 25.4122 118.702 23.0964 118.702 19.9209C118.702 16.7279 121.053 14.4297 124.07 14.4297C126.895 14.4297 128.491 16.1841 128.93 17.9209L126.421 18.763C126.175 17.9034 125.509 17.0086 124.123 17.0086C122.702 17.0086 121.509 18.0437 121.509 19.9209Z" fill="#063E58"/>
<path d="M8.73679 21.2544V27.7456C8.40345 27.4825 8.05257 27.1667 7.71924 26.8684V21.5877L8.73679 21.2544Z" fill="#063E58"/>
<path d="M11.5439 20.2886V29.3939C11.2106 29.2535 10.8597 29.0956 10.5264 28.9026V20.6395L11.5439 20.2886Z" fill="#063E58"/>
<path d="M22.7016 16.1669V18.7809L19.9121 17.816V30.009C19.5612 30.0967 19.2103 30.1669 18.8945 30.2371V14.8511L22.7016 16.1669Z" fill="#063E58"/>
<path d="M25.5092 21.5883V26.869C25.1758 27.1672 24.825 27.483 24.4916 27.7462V21.7111L22.7197 21.1146V28.8865C22.4039 29.0444 22.053 29.2199 21.7021 29.3778V20.2725L25.5092 21.5883Z" fill="#063E58"/>
<path d="M27.2636 24.816V20.3423L24.4741 19.395V14.9037L17.1232 12.3774V30.4125C16.7899 30.4301 16.439 30.4301 16.1057 30.4125V9.14931L19.9303 11.2897V12.8686L21.6847 13.4827V10.237L14.3162 6.13175V12.9914L8.73725 14.9037V18.8335L10.5092 18.2195V16.1669L14.3162 14.8511V30.2371C14.0004 30.1669 13.6495 30.0967 13.3162 30.009V17.816L5.96531 20.3423V24.816C4.47408 22.6581 3.70215 20.1493 3.70215 17.5178C3.70215 10.3949 9.49164 4.58789 16.632 4.58789C23.7373 4.58789 29.5268 10.3774 29.5268 17.5178C29.5268 20.1493 28.7549 22.6581 27.2636 24.816Z" fill="#063E58"/>
<path d="M16.6141 0.90332C7.43862 0.90332 0 8.34194 0 17.4999C0 26.6753 7.43862 34.0964 16.6141 34.0964C25.7895 34.0964 33.2106 26.6753 33.2106 17.4999C33.2106 8.34194 25.7895 0.90332 16.6141 0.90332ZM16.6141 32.2017C8.5088 32.2017 1.91229 25.6051 1.91229 17.4999C1.91229 9.41212 8.49125 2.81561 16.6141 2.81561C24.7018 2.81561 31.2983 9.39457 31.2983 17.4999C31.2983 25.6051 24.7194 32.2017 16.6141 32.2017Z" fill="#063E58"/>
</svg>
