<svg width="60" height="55" viewBox="0 0 60 55" fill="none" xmlns="http://www.w3.org/2000/svg">
<path fill-rule="evenodd" clip-rule="evenodd" d="M12 7.83326V54C12 54.5523 12.4477 55 13 55H51C51.5523 55 52 54.5523 52 54V6C52 2.68629 49.3137 0 46 0H6.5L8 0.5L8.5 1L9 1.21323L10 2.12424L11 3.3693L11.5 4.5L11.8553 6L12 7.83326ZM11.4225 1.5L12.2924 2.58308L12.9277 4.01975L13.3416 5.76674L13.5 7.77418V53.5H50.5V6C50.5 3.51472 48.4853 1.5 46 1.5H11.4225Z" fill="white"/>
<path fill-rule="evenodd" clip-rule="evenodd" d="M11.5 12.5V6.5C11.5 3.73858 9.26142 1.5 6.5 1.5C3.73858 1.5 1.5 3.73858 1.5 6.5V7C1.5 10.0376 3.96243 12.5 7 12.5H11.5ZM6.5 0C2.91015 0 0 2.91015 0 6.5V7C0 10.866 3.13401 14 7 14H13V6.5C13 2.91015 10.0899 0 6.5 0Z" fill="white"/>
<path fill-rule="evenodd" clip-rule="evenodd" d="M38 14H20V12.5H38V14Z" fill="white"/>
<path fill-rule="evenodd" clip-rule="evenodd" d="M29 10H20V8.5H29V10Z" fill="white"/>
<path fill-rule="evenodd" clip-rule="evenodd" d="M45 46H36V44.5H45V46Z" fill="white"/>
<path fill-rule="evenodd" clip-rule="evenodd" d="M34 42H20V40.5H34V42Z" fill="white"/>
<path fill-rule="evenodd" clip-rule="evenodd" d="M45 38H20V36.5H45V38Z" fill="white"/>
<path fill-rule="evenodd" clip-rule="evenodd" d="M45 34H20V32.5H45V34Z" fill="white"/>
<path fill-rule="evenodd" clip-rule="evenodd" d="M45 30H20V28.5H45V30Z" fill="white"/>
<path fill-rule="evenodd" clip-rule="evenodd" d="M45 26H20V24.5H45V26Z" fill="white"/>
<path fill-rule="evenodd" clip-rule="evenodd" d="M45 22H20V20.5H45V22Z" fill="white"/>
<path fill-rule="evenodd" clip-rule="evenodd" d="M45 18H20V16.5H45V18Z" fill="white"/>
<path fill-rule="evenodd" clip-rule="evenodd" d="M58.5 4.5H56.5V30.5H58.5V4.5ZM56.5 3C55.6716 3 55 3.67157 55 4.5V31.5C55 31.7761 55.2239 32 55.5 32H59.5C59.7761 32 60 31.7761 60 31.5V4.5C60 3.67157 59.3284 3 58.5 3H56.5Z" fill="white"/>
<path fill-rule="evenodd" clip-rule="evenodd" d="M55 31L56 37H59L60 31H55ZM56.7707 32.5L57.2707 35.5H57.7293L58.2293 32.5H56.7707Z" fill="white"/>
<path fill-rule="evenodd" clip-rule="evenodd" d="M57 38.5C57 38.7761 57.2239 39 57.5 39C57.7761 39 58 38.7761 58 38.5V36.5C58 36.2239 57.7761 36 57.5 36C57.2239 36 57 36.2239 57 36.5V38.5Z" fill="white"/>
<path fill-rule="evenodd" clip-rule="evenodd" d="M59 13H56V11.5H59V13Z" fill="white"/>
</svg>
